<svg xmlns="http://www.w3.org/2000/svg" width="21.09" height="20.132" viewBox="0 0 21.09 20.132">
  <g id="_24-hour-reception" data-name="24-hour-reception" transform="translate(0 -10.479)">
    <g id="Layer_2_17_" transform="translate(0 10.479)">
      <g id="Group_47" data-name="Group 47">
        <path id="Path_110" data-name="Path 110" d="M244.589,409.306c-.166.045-.334.084-.5.119a.81.81,0,0,0-.632.956c.005.025.011.049.018.073a.811.811,0,0,0,.938.559c.2-.041.4-.089.6-.142a.81.81,0,1,0-.421-1.565Z" transform="translate(-232.314 -391.053)" fill="#8c8a8a"/>
        <path id="Path_111" data-name="Path 111" d="M110.543,393.412c-.157-.07-.313-.145-.464-.224a.81.81,0,0,0-.75,1.437c.181.094.367.184.553.267a.811.811,0,1,0,.661-1.48Z" transform="translate(-103.917 -375.611)" fill="#8c8a8a"/>
        <path id="Path_112" data-name="Path 112" d="M175.96,414.25c-.17-.014-.343-.033-.513-.057a.81.81,0,1,0-.228,1.6c.2.029.407.051.611.068a.81.81,0,1,0,.13-1.615Z" transform="translate(-166.547 -395.735)" fill="#8c8a8a"/>
        <path id="Path_113" data-name="Path 113" d="M308.488,380.456c-.141.1-.287.191-.434.28a.811.811,0,0,0-.358.927.821.821,0,0,0,.082.185.811.811,0,0,0,1.112.276c.175-.105.348-.218.516-.333a.81.81,0,0,0-.919-1.335Z" transform="translate(-293.602 -363.412)" fill="#8c8a8a"/>
        <path id="Path_114" data-name="Path 114" d="M361.437,332.282a.811.811,0,0,0-1.131.183c-.1.139-.206.276-.314.409a.81.81,0,1,0,1.254,1.027c.129-.158.256-.322.375-.487A.81.81,0,0,0,361.437,332.282Z" transform="translate(-343.365 -317.43)" fill="#8c8a8a"/>
        <path id="Path_115" data-name="Path 115" d="M394.966,270.2a.81.81,0,0,0-1,.551c-.048.165-.1.33-.159.491a.81.81,0,0,0,1.526.547c.069-.192.133-.389.189-.585A.81.81,0,0,0,394.966,270.2Z" transform="translate(-375.759 -258.3)" fill="#8c8a8a"/>
        <path id="Path_116" data-name="Path 116" d="M20.727,17.1l-1.065.331a10.01,10.01,0,0,0-4.814-5.749q-.348-.187-.705-.344l0,0-.03-.012a10,10,0,0,0-6.652-.49c-.018,0-.035.007-.052.012-.074.02-.149.042-.224.064-.122.037-.244.076-.364.117l-.041.016A9.988,9.988,0,0,0,1.884,14.7l-.013.017c-.118.166-.232.338-.341.511-.007.011-.012.023-.019.034q-.162.262-.309.536A10.007,10.007,0,0,0,.08,21.807s0,.009,0,.014,0,.007,0,.01a10.181,10.181,0,0,0,.351,1.64,10,10,0,0,0,2.128,3.8.81.81,0,0,0,1.209-1.08,8.361,8.361,0,0,1-1.23-1.8c0-.008-.007-.016-.01-.024-.077-.153-.151-.31-.219-.468v0A8.593,8.593,0,0,1,1.986,23a8.471,8.471,0,0,1,3.1-9.268l.125-.09a8.467,8.467,0,0,1,5.118-1.538h.043l.162.008.065,0a8.492,8.492,0,0,1,6.755,4.127l0,0,.063.108.008.012a8.437,8.437,0,0,1,.684,1.54l-1.065.331c-.3.092-.325.3-.065.473l2.318,1.5A.453.453,0,0,0,19.99,20l1.059-2.551C21.167,17.166,21.023,17.007,20.727,17.1Z" transform="translate(0 -10.479)" fill="#8c8a8a"/>
        <path id="Path_117" data-name="Path 117" d="M111.277,166.59a6.876,6.876,0,0,0-1.6,1.506,3.061,3.061,0,0,0-.51,1.362h4.887V168.13h-2.543q.224-.22.39-.356t.658-.476a4.3,4.3,0,0,0,1.142-1.072,1.863,1.863,0,0,0,.314-1.024,1.591,1.591,0,0,0-.274-.91,1.63,1.63,0,0,0-.752-.6,3.641,3.641,0,0,0-1.338-.2,3.263,3.263,0,0,0-1.29.206,1.634,1.634,0,0,0-.722.592,2.6,2.6,0,0,0-.352,1.074l1.632.132a1.2,1.2,0,0,1,.266-.692.754.754,0,0,1,1.008-.006.612.612,0,0,1,.2.458.9.9,0,0,1-.2.524A4.754,4.754,0,0,1,111.277,166.59Z" transform="translate(-104.18 -156.502)" fill="#8c8a8a"/>
        <path id="Path_118" data-name="Path 118" d="M232.042,169.459v-1.1h.736V167.1h-.736v-3.6h-1.42l-2.967,3.527v1.34h2.967v1.1Zm-2.987-2.36,1.568-1.845V167.1Z" transform="translate(-217.251 -156.503)" fill="#8c8a8a"/>
      </g>
    </g>
  </g>
</svg>
