<svg xmlns="http://www.w3.org/2000/svg" width="34.081" height="18.649" viewBox="0 0 34.081 18.649">
  <g id="Air-conditioning" transform="translate(0 -108.672)">
    <g id="Group_42" data-name="Group 42" transform="translate(0 108.672)">
      <g id="Group_41" data-name="Group 41" transform="translate(0 0)">
        <path id="Path_67" data-name="Path 67" d="M32.377,108.672H1.7a1.7,1.7,0,0,0-1.7,1.7V119.4a1.768,1.768,0,0,0,1.765,1.765h30.55a1.768,1.768,0,0,0,1.765-1.765v-9.027A1.7,1.7,0,0,0,32.377,108.672Zm.568,10.731a.63.63,0,0,1-.629.629H1.765a.63.63,0,0,1-.629-.629v-9.027a.568.568,0,0,1,.568-.568H32.377a.568.568,0,0,1,.568.568Z" transform="translate(0 -108.672)" fill="#8c8a8a"/>
        <path id="Path_68" data-name="Path 68" d="M67.833,212.672H40.568a.568.568,0,0,0-.568.568v2.272a.568.568,0,0,0,.568.568H67.833a.568.568,0,0,0,.568-.568V213.24A.568.568,0,0,0,67.833,212.672Zm-23.289,2.272H41.136v-1.136h3.408Zm4.544,0H45.68v-1.136h3.408Zm4.544,0H50.224v-1.136h3.408Zm4.544,0H54.768v-1.136h3.408Zm4.544,0H59.313v-1.136h3.408Zm4.544,0H63.857v-1.136h3.408Z" transform="translate(-37.16 -205.288)" fill="#8c8a8a"/>
        <rect id="Rectangle_7" data-name="Rectangle 7" width="2.064" height="1.239" transform="translate(2.89 3.303)" fill="#8c8a8a"/>
        <rect id="Rectangle_8" data-name="Rectangle 8" width="1.239" height="1.239" transform="translate(6.193 3.303)" fill="#8c8a8a"/>
        <rect id="Rectangle_9" data-name="Rectangle 9" width="1.239" height="0.826" transform="translate(30.553 2.477)" fill="#8c8a8a"/>
        <rect id="Rectangle_10" data-name="Rectangle 10" width="1.239" height="0.826" transform="translate(30.553 4.129)" fill="#8c8a8a"/>
        <rect id="Rectangle_11" data-name="Rectangle 11" width="1.239" height="0.826" transform="translate(28.901 2.477)" fill="#8c8a8a"/>
        <path id="Path_69" data-name="Path 69" d="M66.467,297.288a.979.979,0,0,1,0-1.469l-.8-.8A2.114,2.114,0,0,0,65.576,298q.042.045.087.087a.573.573,0,0,1,.222.475c-.037.389-.534.808-.705.924l.317.471.315.473a2.763,2.763,0,0,0,1.2-1.754A1.693,1.693,0,0,0,66.467,297.288Z" transform="translate(-60.385 -281.785)" fill="#8c8a8a"/>
        <path id="Path_70" data-name="Path 70" d="M130.467,297.288a.979.979,0,0,1,0-1.469l-.8-.8a2.114,2.114,0,0,0-.087,2.988q.042.045.087.087a.573.573,0,0,1,.222.475c-.038.389-.534.808-.705.924l.317.471.315.473a2.763,2.763,0,0,0,1.2-1.754A1.693,1.693,0,0,0,130.467,297.288Z" transform="translate(-119.841 -281.785)" fill="#8c8a8a"/>
        <path id="Path_71" data-name="Path 71" d="M194.467,297.288a.979.979,0,0,1,0-1.469l-.8-.8a2.114,2.114,0,0,0-.087,2.988q.042.045.087.087a.573.573,0,0,1,.222.475c-.037.389-.534.808-.705.924l.317.471.315.473a2.763,2.763,0,0,0,1.2-1.754A1.693,1.693,0,0,0,194.467,297.288Z" transform="translate(-179.297 -281.785)" fill="#8c8a8a"/>
        <path id="Path_72" data-name="Path 72" d="M258.467,297.288a.979.979,0,0,1,0-1.469l-.8-.8a2.114,2.114,0,0,0-.087,2.988q.042.045.087.087a.573.573,0,0,1,.222.475c-.037.389-.534.808-.705.924l.317.471.315.473a2.763,2.763,0,0,0,1.2-1.754A1.693,1.693,0,0,0,258.467,297.288Z" transform="translate(-238.753 -281.785)" fill="#8c8a8a"/>
        <path id="Path_73" data-name="Path 73" d="M322.467,297.288a.979.979,0,0,1,0-1.469l-.8-.8a2.114,2.114,0,0,0-.087,2.988q.042.045.087.087a.573.573,0,0,1,.222.475c-.037.389-.534.808-.705.924l.317.471.315.473a2.763,2.763,0,0,0,1.2-1.754A1.693,1.693,0,0,0,322.467,297.288Z" transform="translate(-298.208 -281.785)" fill="#8c8a8a"/>
        <path id="Path_74" data-name="Path 74" d="M386.467,297.288a.979.979,0,0,1,0-1.469l-.8-.8a2.114,2.114,0,0,0-.087,2.988q.042.045.087.087a.573.573,0,0,1,.222.475c-.037.389-.534.808-.705.924l.317.471.315.473a2.763,2.763,0,0,0,1.2-1.754A1.693,1.693,0,0,0,386.467,297.288Z" transform="translate(-357.664 -281.785)" fill="#8c8a8a"/>
      </g>
    </g>
  </g>
</svg>
