<svg xmlns="http://www.w3.org/2000/svg" width="26.671" height="16.113" viewBox="0 0 26.671 16.113">
  <g id="American-Express" transform="translate(0 -88.907)">
    <g id="Group_54" data-name="Group 54" transform="translate(0 88.907)">
      <path id="Path_134" data-name="Path 134" d="M25.528,88.907H1.143A1.143,1.143,0,0,0,0,90.05v13.827a1.143,1.143,0,0,0,1.143,1.143H25.528a1.143,1.143,0,0,0,1.143-1.143V90.05A1.143,1.143,0,0,0,25.528,88.907Zm-.743,14.227H1.886V90.793h22.9v12.341Z" transform="translate(0 -88.907)" fill="#8c8a8a"/>
      <path id="Path_135" data-name="Path 135" d="M54.732,192.138h.621a.232.232,0,0,0,.213-.14l.358-.834h2.138l.363.835a.232.232,0,0,0,.213.14h.648a.232.232,0,0,0,.212-.327l-1.736-3.9a.232.232,0,0,0-.212-.138H56.437a.232.232,0,0,0-.213.139l-1.706,3.9a.232.232,0,0,0,.213.325Zm2.236-3.442.665,1.525h-1.3Z" transform="translate(-51.264 -181.905)" fill="#8c8a8a"/>
      <path id="Path_136" data-name="Path 136" d="M140.148,192.137h.607a.232.232,0,0,0,.232-.232V188.9l1.37,3.1a.232.232,0,0,0,.212.138h.674a.232.232,0,0,0,.211-.135l1.4-3.049V191.9a.232.232,0,0,0,.232.232h.607a.232.232,0,0,0,.232-.232v-3.9a.232.232,0,0,0-.232-.232H144.37a.232.232,0,0,0-.212.137l-1.253,2.788-1.249-2.788a.232.232,0,0,0-.212-.137h-1.3a.232.232,0,0,0-.232.232v3.9A.232.232,0,0,0,140.148,192.137Z" transform="translate(-131.608 -181.903)" fill="#8c8a8a"/>
      <path id="Path_137" data-name="Path 137" d="M265.008,192.137h3.747a.232.232,0,0,0,.173-.078l1.217-1.364,1.186,1.371a.232.232,0,0,0,.176.08h.75a.232.232,0,0,0,.177-.382l-1.576-1.856,1.568-1.736a.232.232,0,0,0-.172-.388h-.738a.232.232,0,0,0-.172.076l-1.158,1.277-1.118-1.283a.232.232,0,0,0-.175-.08h-3.884a.232.232,0,0,0-.232.232v3.9A.232.232,0,0,0,265.008,192.137Zm.822-1.778h2.13a.232.232,0,0,0,.232-.232v-.364a.232.232,0,0,0-.232-.232h-2.13v-.817l2.605,0,1.042,1.19-1.179,1.314h-2.469v-.862Z" transform="translate(-249.054 -181.903)" fill="#8c8a8a"/>
    </g>
  </g>
</svg>
