<svg id="Bars" xmlns="http://www.w3.org/2000/svg" width="14.357" height="19.245" viewBox="0 0 14.357 19.245">
  <g id="linear_color" data-name="linear color" transform="translate(0 0)">
    <path id="Path_2" data-name="Path 2" d="M82.289,6.661a.458.458,0,0,0-.39-.217H80.209c0-.022-.01-.043-.015-.064a2.736,2.736,0,0,0,1.553-1.921A.458.458,0,0,0,81.289,4h0a.458.458,0,0,0-.458.458A2.106,2.106,0,0,1,79.81,5.546a2.331,2.331,0,0,0-.255-.292,2.291,2.291,0,0,0-3.836,1.19h-7.26a.458.458,0,0,0-.41.663A31.842,31.842,0,0,0,70.3,10.833c1.622,2.29,3.107,3.57,4.421,3.815v5.574c-.5.753-2.664,1.7-3.964,2.131a.458.458,0,0,0,.145.893h8.553a.458.458,0,0,0,.145-.893c-1.3-.434-3.467-1.378-3.964-2.131V14.647c1.314-.245,2.8-1.524,4.421-3.815a31.842,31.842,0,0,0,2.251-3.726A.458.458,0,0,0,82.289,6.661ZM80.616,8.277H79.8a2.274,2.274,0,0,0,.413-.916h.929C81,7.613,80.823,7.926,80.616,8.277ZM76.974,5.947a1.365,1.365,0,0,1,.965-.42,1.375,1.375,0,1,1-.965.42ZM75.717,7.36a2.26,2.26,0,0,0,.412.916H69.742c-.207-.35-.383-.663-.522-.916Zm1.4,14.968H73.239a7.318,7.318,0,0,0,1.941-1.24,7.318,7.318,0,0,0,1.94,1.24Zm-1.941-8.553c-1.077,0-2.542-1.23-4.126-3.464-.267-.377-.519-.756-.75-1.118h9.751c-.231.363-.482.741-.75,1.118C77.721,12.545,76.256,13.775,75.179,13.775Z" transform="translate(-68 -4)" fill="#8c8a8a"/>
    <ellipse id="Ellipse_1" data-name="Ellipse 1" cx="0.479" cy="0.445" rx="0.479" ry="0.445" transform="translate(8.075 5.969)" fill="#8c8a8a"/>
    <ellipse id="Ellipse_2" data-name="Ellipse 2" cx="0.479" cy="0.445" rx="0.479" ry="0.445" transform="translate(5.338 6.585)" fill="#8c8a8a"/>
    <ellipse id="Ellipse_3" data-name="Ellipse 3" cx="0.479" cy="0.445" rx="0.479" ry="0.445" transform="translate(6.843 7.817)" fill="#8c8a8a"/>
  </g>
</svg>
