<svg xmlns="http://www.w3.org/2000/svg" width="22.902" height="17.176" viewBox="0 0 22.902 17.176">
  <g id="Bathroom" transform="translate(0 -64)">
    <g id="Group_38" data-name="Group 38" transform="translate(0 64)">
      <path id="Path_43" data-name="Path 43" d="M21.47,68.771h-.477V65.909a1.908,1.908,0,0,0-3.817,0v.478a.477.477,0,0,0,.476.478h0a.477.477,0,0,0,.478-.476v-.479a.954.954,0,0,1,1.908,0v2.863H1.431a1.428,1.428,0,0,0-.477,2.775v1.519a6.2,6.2,0,0,0,2.863,5.218V80.7a.477.477,0,0,0,.477.477h.954a.477.477,0,0,0,.427-.264l.839-1.678a6.247,6.247,0,0,0,.642.034h8.588a6.234,6.234,0,0,0,.642-.034l.839,1.678a.477.477,0,0,0,.427.264h.954a.477.477,0,0,0,.477-.477V78.283a6.2,6.2,0,0,0,2.863-5.218V71.546a1.428,1.428,0,0,0-.477-2.775Zm-15.745.954H10.5V74.41l-4.771-.795ZM.954,70.2a.477.477,0,0,1,.477-.477h3.34v.954H1.431A.477.477,0,0,1,.954,70.2Zm4,10.02H4.771V78.789a6.155,6.155,0,0,0,.77.258Zm13.177,0h-.182l-.588-1.175a6.165,6.165,0,0,0,.77-.258Zm2.863-7.157a5.254,5.254,0,0,1-5.248,5.248H7.157a5.254,5.254,0,0,1-5.248-5.248V71.634H4.771V74.02a.477.477,0,0,0,.4.471l5.725.954a.493.493,0,0,0,.078.007.477.477,0,0,0,.477-.477v-3.34h9.542v1.431Zm.477-2.386H11.451v-.954H21.47a.477.477,0,1,1,0,.954Z" transform="translate(0 -64)" fill="#8c8a8a"/>
    </g>
  </g>
</svg>
