<svg xmlns="http://www.w3.org/2000/svg" width="14.185" height="23.859" viewBox="0 0 14.185 23.859">
  <g id="car-park" transform="translate(-103.795)">
    <path id="Path_194" data-name="Path 194" d="M117.98,14.185V0H103.795V14.185h4.9v5.034a2.311,2.311,0,0,0-1.739,2.236v2.4h7.858v-2.4a2.311,2.311,0,0,0-1.739-2.236V14.185ZM105.193,1.4h11.389V12.787H105.193Zm8.225,20.057v1.006h-5.062V21.455a.91.91,0,0,1,.909-.909h3.244A.91.91,0,0,1,113.418,21.455Zm-1.739-2.307H110.1V14.185h1.584Z" fill="#8c8a8a"/>
    <path id="Path_195" data-name="Path 195" d="M201.612,70.742h-2.979V78.55h1.4V75.695h1.581a2.476,2.476,0,1,0,0-4.953Zm0,3.555h-1.581V72.14h1.581a1.078,1.078,0,0,1,0,2.157Z" transform="translate(-90.418 -67.445)" fill="#8c8a8a"/>
  </g>
</svg>
