<svg xmlns="http://www.w3.org/2000/svg" width="22.611" height="17.403" viewBox="0 0 22.611 17.403">
  <g id="Central-Heating" transform="translate(0 -34.163)">
    <g id="Group_89" data-name="Group 89" transform="translate(0 34.163)">
      <path id="Path_208" data-name="Path 208" d="M21.963,34.163H2.737a.648.648,0,0,0-.648.648v.333H1.226v.649H.648a.648.648,0,0,0,0,1.3h.578v.75h.863V50.918a.648.648,0,1,0,1.3,0v-.275h17.93v.275a.648.648,0,1,0,1.3,0V34.811A.648.648,0,0,0,21.963,34.163Zm-15.294,1.3H8.561V49.347H6.669Zm-1.3,13.888H3.385V35.459H5.373V49.347ZM9.857,35.459H11.75V49.347H9.857Zm3.188,0h1.892V49.347H13.046Zm3.188,0h1.892V49.347H16.234Zm3.188,13.888V35.459h1.893V49.347H19.423Z" transform="translate(0 -34.163)" fill="#8c8a8a"/>
    </g>
  </g>
</svg>
