<svg xmlns="http://www.w3.org/2000/svg" width="20.361" height="22.663" viewBox="0 0 20.361 22.663">
  <g id="City-Hotel" transform="translate(-26)">
    <path id="Path_213" data-name="Path 213" d="M45.918,5.312h-8.41V.443A.443.443,0,0,0,37.066,0H26.443A.443.443,0,0,0,26,.443V22.22a.443.443,0,0,0,.443.443H45.918a.443.443,0,0,0,.443-.443V5.754A.443.443,0,0,0,45.918,5.312Zm-8.41.885h7.967V17.351H37.508Zm-7.082,15.58V18.236h2.656v3.541Zm3.1-4.426H29.984a.443.443,0,0,0-.443.443v3.984H26.885V.885h9.738V21.777H33.967V17.794A.443.443,0,0,0,33.525,17.351Zm3.984,4.426V18.236h7.967v3.541Z" fill="#8c8a8a"/>
    <path id="Path_214" data-name="Path 214" d="M136.442,41.772h.885a.443.443,0,0,0,.443-.443v-.885a.443.443,0,0,0-.443-.443h-.885a.443.443,0,0,0-.443.443v.885A.443.443,0,0,0,136.442,41.772Z" transform="translate(-105.13 -38.23)" fill="#8c8a8a"/>
    <path id="Path_215" data-name="Path 215" d="M136.442,111.772h.885a.443.443,0,0,0,.443-.443v-.885a.443.443,0,0,0-.443-.443h-.885a.443.443,0,0,0-.443.443v.885A.443.443,0,0,0,136.442,111.772Z" transform="translate(-105.13 -105.132)" fill="#8c8a8a"/>
    <path id="Path_216" data-name="Path 216" d="M136.442,181.772h.885a.443.443,0,0,0,.443-.443v-.885a.443.443,0,0,0-.443-.443h-.885a.443.443,0,0,0-.443.443v.885A.443.443,0,0,0,136.442,181.772Z" transform="translate(-105.13 -172.034)" fill="#8c8a8a"/>
    <path id="Path_217" data-name="Path 217" d="M136.442,251.771h.885a.443.443,0,0,0,.443-.443v-.885a.443.443,0,0,0-.443-.443h-.885a.443.443,0,0,0-.443.443v.885A.443.443,0,0,0,136.442,251.771Z" transform="translate(-105.13 -238.934)" fill="#8c8a8a"/>
    <path id="Path_218" data-name="Path 218" d="M136.442,321.771h.885a.443.443,0,0,0,.443-.443v-.885a.443.443,0,0,0-.443-.443h-.885a.443.443,0,0,0-.443.443v.885A.443.443,0,0,0,136.442,321.771Z" transform="translate(-105.13 -305.836)" fill="#8c8a8a"/>
    <path id="Path_219" data-name="Path 219" d="M66.444,41.772h.885a.443.443,0,0,0,.443-.443v-.885A.443.443,0,0,0,67.329,40h-.885a.443.443,0,0,0-.443.443v.885A.443.443,0,0,0,66.444,41.772Z" transform="translate(-38.23 -38.23)" fill="#8c8a8a"/>
    <path id="Path_220" data-name="Path 220" d="M66.444,111.772h.885a.443.443,0,0,0,.443-.443v-.885a.443.443,0,0,0-.443-.443h-.885a.443.443,0,0,0-.443.443v.885A.443.443,0,0,0,66.444,111.772Z" transform="translate(-38.23 -105.132)" fill="#8c8a8a"/>
    <path id="Path_221" data-name="Path 221" d="M66.444,181.772h.885a.443.443,0,0,0,.443-.443v-.885a.443.443,0,0,0-.443-.443h-.885a.443.443,0,0,0-.443.443v.885A.443.443,0,0,0,66.444,181.772Z" transform="translate(-38.23 -172.034)" fill="#8c8a8a"/>
    <path id="Path_222" data-name="Path 222" d="M66.444,251.771h.885a.443.443,0,0,0,.443-.443v-.885a.443.443,0,0,0-.443-.443h-.885a.443.443,0,0,0-.443.443v.885A.443.443,0,0,0,66.444,251.771Z" transform="translate(-38.23 -238.934)" fill="#8c8a8a"/>
    <path id="Path_223" data-name="Path 223" d="M66.444,321.771h.885a.443.443,0,0,0,.443-.443v-.885a.443.443,0,0,0-.443-.443h-.885a.443.443,0,0,0-.443.443v.885A.443.443,0,0,0,66.444,321.771Z" transform="translate(-38.23 -305.836)" fill="#8c8a8a"/>
    <path id="Path_224" data-name="Path 224" d="M207.329,40h-.885a.443.443,0,0,0-.443.443v.885a.443.443,0,0,0,.443.443h.885a.443.443,0,0,0,.443-.443v-.885A.443.443,0,0,0,207.329,40Z" transform="translate(-172.034 -38.23)" fill="#8c8a8a"/>
    <path id="Path_225" data-name="Path 225" d="M207.329,110h-.885a.443.443,0,0,0-.443.443v.885a.443.443,0,0,0,.443.443h.885a.443.443,0,0,0,.443-.443v-.885A.443.443,0,0,0,207.329,110Z" transform="translate(-172.034 -105.131)" fill="#8c8a8a"/>
    <path id="Path_226" data-name="Path 226" d="M207.329,180h-.885a.443.443,0,0,0-.443.443v.885a.443.443,0,0,0,.443.443h.885a.443.443,0,0,0,.443-.443v-.885A.443.443,0,0,0,207.329,180Z" transform="translate(-172.034 -172.033)" fill="#8c8a8a"/>
    <path id="Path_227" data-name="Path 227" d="M207.329,250h-.885a.443.443,0,0,0-.443.443v.885a.443.443,0,0,0,.443.443h.885a.443.443,0,0,0,.443-.443v-.885A.443.443,0,0,0,207.329,250Z" transform="translate(-172.034 -238.934)" fill="#8c8a8a"/>
    <path id="Path_228" data-name="Path 228" d="M207.329,320h-.885a.443.443,0,0,0-.443.443v.885a.443.443,0,0,0,.443.443h.885a.443.443,0,0,0,.443-.443v-.885A.443.443,0,0,0,207.329,320Z" transform="translate(-172.034 -305.836)" fill="#8c8a8a"/>
    <path id="Path_229" data-name="Path 229" d="M392.328,180h-.885a.443.443,0,0,0-.443.443v.885a.443.443,0,0,0,.443.443h.885a.443.443,0,0,0,.443-.443v-.885A.443.443,0,0,0,392.328,180Z" transform="translate(-348.844 -172.033)" fill="#8c8a8a"/>
    <path id="Path_230" data-name="Path 230" d="M392.328,250h-.885a.443.443,0,0,0-.443.443v.885a.443.443,0,0,0,.443.443h.885a.443.443,0,0,0,.443-.443v-.885A.443.443,0,0,0,392.328,250Z" transform="translate(-348.844 -238.934)" fill="#8c8a8a"/>
    <path id="Path_231" data-name="Path 231" d="M392.328,320h-.885a.443.443,0,0,0-.443.443v.885a.443.443,0,0,0,.443.443h.885a.443.443,0,0,0,.443-.443v-.885A.443.443,0,0,0,392.328,320Z" transform="translate(-348.844 -305.836)" fill="#8c8a8a"/>
    <path id="Path_232" data-name="Path 232" d="M322.33,180h-.885a.443.443,0,0,0-.443.443v.885a.443.443,0,0,0,.443.443h.885a.443.443,0,0,0,.443-.443v-.885A.443.443,0,0,0,322.33,180Z" transform="translate(-281.944 -172.033)" fill="#8c8a8a"/>
    <path id="Path_233" data-name="Path 233" d="M322.33,250h-.885a.443.443,0,0,0-.443.443v.885a.443.443,0,0,0,.443.443h.885a.443.443,0,0,0,.443-.443v-.885A.443.443,0,0,0,322.33,250Z" transform="translate(-281.944 -238.934)" fill="#8c8a8a"/>
    <path id="Path_234" data-name="Path 234" d="M322.33,320h-.885a.443.443,0,0,0-.443.443v.885a.443.443,0,0,0,.443.443h.885a.443.443,0,0,0,.443-.443v-.885A.443.443,0,0,0,322.33,320Z" transform="translate(-281.944 -305.836)" fill="#8c8a8a"/>
  </g>
</svg>
