<svg xmlns="http://www.w3.org/2000/svg" width="35.429" height="20.946" viewBox="0 0 35.429 20.946">
  <g id="Conference-Room" transform="translate(0 -104.649)">
    <path id="Path_6" data-name="Path 6" d="M33.591,112.906h-.636l.183-3.28a1.285,1.285,0,0,0-1.476-1.341,20.7,20.7,0,0,1-4.115.2L27.686,106a1.285,1.285,0,0,0-1.476-1.341,20.718,20.718,0,0,1-3.785.217.519.519,0,0,0-.036,1.037,21.761,21.761,0,0,0,3.975-.228.247.247,0,0,1,.206.062.241.241,0,0,1,.079.195l-.137,2.461q-.494-.05-.986-.123a1.285,1.285,0,0,0-1.476,1.341l.183,3.28H22.075l.183-3.28a1.285,1.285,0,0,0-1.476-1.341q-.5.076-1.011.125l-.138-2.463a.241.241,0,0,1,.079-.195.248.248,0,0,1,.206-.062c.114.017.229.033.343.048a.519.519,0,0,0,.138-1.029c-.109-.015-.218-.03-.327-.046A1.285,1.285,0,0,0,18.6,106l.139,2.483q-1.021.051-2.043,0L16.831,106a1.285,1.285,0,0,0-1.476-1.341,20.8,20.8,0,0,1-3.005.229.519.519,0,0,0,0,1.038h0a21.84,21.84,0,0,0,3.156-.241.246.246,0,0,1,.206.062.241.241,0,0,1,.079.195l-.138,2.463q-.507-.051-1.011-.125a1.285,1.285,0,0,0-1.476,1.341l.183,3.28H11.2l.183-3.28A1.285,1.285,0,0,0,9.9,108.285q-.492.074-.986.123l-.137-2.461a.241.241,0,0,1,.079-.195.246.246,0,0,1,.206-.062c.381.057.772.1,1.162.142a.519.519,0,1,0,.1-1.033c-.372-.036-.745-.081-1.108-.136A1.285,1.285,0,0,0,7.743,106l.139,2.482a20.7,20.7,0,0,1-4.115-.2,1.285,1.285,0,0,0-1.476,1.341l.183,3.28H1.838A1.84,1.84,0,0,0,0,114.745v1.019a.519.519,0,0,0,.519.519H2.663l.095,1.7a2.005,2.005,0,0,0,2,1.893h.584V122a.7.7,0,0,0,.7.7h.273v1.073a9.68,9.68,0,0,0-2.247.4.519.519,0,0,0-.37.5v.41a.519.519,0,1,0,1.038,0v-.015a8.413,8.413,0,0,1,4.2,0v.015a.519.519,0,1,0,1.038,0v-.41a.519.519,0,0,0-.37-.5,9.68,9.68,0,0,0-2.247-.4V122.7h.273a.7.7,0,0,0,.7-.7v-2.126h.584a2.006,2.006,0,0,0,1.9-1.36.7.7,0,0,0,.686.564h.273v1.073a9.68,9.68,0,0,0-2.247.4.519.519,0,0,0-.37.5v.41a.519.519,0,1,0,1.038,0v-.015a8.414,8.414,0,0,1,4.2,0v.015a.519.519,0,1,0,1.038,0v-.41a.519.519,0,0,0-.37-.5,9.679,9.679,0,0,0-2.247-.4v-1.073h.273a.7.7,0,0,0,.676-.522,2.006,2.006,0,0,0,1.883,1.318h.584V122a.7.7,0,0,0,.7.7H17.2v1.073a9.681,9.681,0,0,0-2.247.4.519.519,0,0,0-.37.5v.41a.519.519,0,1,0,1.038,0v-.015a8.413,8.413,0,0,1,4.2,0v.015a.519.519,0,1,0,1.038,0v-.41a.519.519,0,0,0-.37-.5,9.679,9.679,0,0,0-2.247-.4V122.7h.273a.7.7,0,0,0,.7-.7v-2.126h.585a2.006,2.006,0,0,0,1.883-1.318.7.7,0,0,0,.676.522h.273v1.073a9.68,9.68,0,0,0-2.247.4.519.519,0,0,0-.37.5v.41a.519.519,0,0,0,1.038,0v-.015a8.413,8.413,0,0,1,4.2,0v.015a.519.519,0,0,0,1.038,0v-.41a.519.519,0,0,0-.37-.5,9.68,9.68,0,0,0-2.247-.4v-1.073h.273a.7.7,0,0,0,.686-.564,2.006,2.006,0,0,0,1.9,1.36H27.1V122a.7.7,0,0,0,.7.7h.273v1.073a9.68,9.68,0,0,0-2.247.4.519.519,0,0,0-.37.5v.41a.519.519,0,0,0,1.038,0v-.015a8.413,8.413,0,0,1,4.2,0v.015a.519.519,0,0,0,1.038,0v-.41a.519.519,0,0,0-.37-.5,9.68,9.68,0,0,0-2.247-.4V122.7h.273a.7.7,0,0,0,.7-.7v-2.126h.584a1.994,1.994,0,0,0,1.129-.35.519.519,0,1,0-.586-.857.961.961,0,0,1-.544.169H26.518a.967.967,0,0,1-.965-.913l-.467-8.356a.241.241,0,0,1,.079-.195.247.247,0,0,1,.206-.062,21.741,21.741,0,0,0,6.444,0,.246.246,0,0,1,.206.062.241.241,0,0,1,.079.195l-.417,7.471a.519.519,0,0,0,1.036.058l.045-.814H34.91a.519.519,0,0,0,.519-.519v-1.019a1.84,1.84,0,0,0-1.838-1.838Zm-4.543,6.968v1.788H28.14v-1.788ZM23.6,118.04h-.907v-1.758H23.6Zm.7-4.1.073,1.3H21.945l.073-1.3Zm-11.55,4.1h-.907v-1.758h.907Zm.671-4.1.073,1.3H11.065l.073-1.3Zm-12.374,1.3v-.5a.8.8,0,0,1,.8-.8h.694l.073,1.3Zm6.251,6.417H6.382v-1.788h.907v1.788Zm1.622-2.826H4.759a.967.967,0,0,1-.965-.913l-.467-8.356a.241.241,0,0,1,.079-.195.247.247,0,0,1,.167-.065l.04,0a21.741,21.741,0,0,0,6.444,0,.246.246,0,0,1,.206.062.241.241,0,0,1,.079.195l-.467,8.356A.967.967,0,0,1,8.911,118.836Zm9.257,2.826h-.907v-1.788h.907Zm1.622-2.826H15.639a.967.967,0,0,1-.965-.913l-.467-8.356a.241.241,0,0,1,.079-.195.247.247,0,0,1,.167-.065l.04,0a21.758,21.758,0,0,0,6.444,0,.246.246,0,0,1,.206.062.241.241,0,0,1,.079.195l-.467,8.356a.967.967,0,0,1-.965.913Zm14.6-3.592H32.824l.073-1.3h.694a.8.8,0,0,1,.8.8Z" transform="translate(0 0)" fill="#8c8a8a"/>
  </g>
</svg>
