<svg xmlns="http://www.w3.org/2000/svg" width="21.587" height="20.895" viewBox="0 0 21.587 20.895">
  <g id="Currency-Exchange" transform="translate(0 -6.327)">
    <g id="Group_124" data-name="Group 124" transform="translate(0 6.327)">
      <g id="Group_123" data-name="Group 123">
        <path id="Path_258" data-name="Path 258" d="M134.2,92.22a2.986,2.986,0,0,1-1.323-.728.753.753,0,0,0-1.064,0l-.057.057a.752.752,0,0,0,.008,1.073,4.816,4.816,0,0,0,2.483,1.231l.091.016v.71a.753.753,0,0,0,.752.752h.085a.753.753,0,0,0,.752-.752v-.727l.089-.017a2.68,2.68,0,0,0,2.485-2.6c.014-1.811-1.328-2.472-2.5-2.845l-.076-.024V85.927l.133.029a3,3,0,0,1,.89.333.752.752,0,0,0,1.025-.247l.038-.061a.752.752,0,0,0-.248-1.042,4.869,4.869,0,0,0-1.745-.6l-.093-.014v-.537a.753.753,0,0,0-.752-.753h-.085a.753.753,0,0,0-.752.753v.577l-.088.018a2.5,2.5,0,0,0-2.3,2.413c0,1.307.755,2.2,2.31,2.725l.074.025v2.714Zm1.728-2.169.154.067c.61.268.835.568.83,1.108,0,.45-.283.772-.84.955l-.144.047V90.051Zm-1.751-2.3a.983.983,0,0,1-.633-.957c0-.338.218-.59.647-.749l.147-.054v1.846Z" transform="translate(-124.341 -78.837)" fill="#8c8a8a"/>
        <path id="Path_259" data-name="Path 259" d="M32.872,10.13a.7.7,0,0,0-.778-.067l-1.478.814a10.01,10.01,0,0,0-18.4,5.459,1.094,1.094,0,1,0,2.188,0,7.823,7.823,0,0,1,14.289-4.4L27.31,12.7a.7.7,0,0,0,.144,1.29l3.71,1.075a.7.7,0,0,0,.87-.479l1.075-3.71A.7.7,0,0,0,32.872,10.13Z" transform="translate(-11.549 -6.327)" fill="#8c8a8a"/>
        <path id="Path_260" data-name="Path 260" d="M19.825,185.327a1.094,1.094,0,0,0-1.094,1.094,7.823,7.823,0,0,1-14.289,4.4l1.385-.762a.7.7,0,0,0-.143-1.29l-3.71-1.075a.7.7,0,0,0-.87.479l-1.075,3.71a.7.7,0,0,0,1.013.811l1.478-.814a10.01,10.01,0,0,0,18.4-5.46A1.094,1.094,0,0,0,19.825,185.327Z" transform="translate(0 -175.536)" fill="#8c8a8a"/>
      </g>
    </g>
  </g>
</svg>
