<svg xmlns="http://www.w3.org/2000/svg" width="18.954" height="18.982" viewBox="0 0 18.954 18.982">
  <g id="Direct-dial-telephone" transform="translate(-0.344 0)">
    <g id="Group_125" data-name="Group 125" transform="translate(0.344 0)">
      <path id="Path_261" data-name="Path 261" d="M15.332,38.067a1.867,1.867,0,0,0-1.354-.621,1.931,1.931,0,0,0-1.37.617l-1.266,1.262c-.1-.056-.208-.108-.308-.16-.144-.072-.28-.14-.4-.212a13.759,13.759,0,0,1-3.3-3,8.118,8.118,0,0,1-1.082-1.707c.329-.3.633-.613.929-.913.112-.112.224-.228.337-.341a1.838,1.838,0,0,0,0-2.772L6.43,29.121c-.124-.124-.252-.252-.373-.381-.24-.248-.493-.5-.753-.745a1.9,1.9,0,0,0-1.342-.589,1.962,1.962,0,0,0-1.362.589L2.592,28,1.23,29.377A2.931,2.931,0,0,0,.361,31.24a7.023,7.023,0,0,0,.513,2.973,17.25,17.25,0,0,0,3.065,5.112,18.853,18.853,0,0,0,6.278,4.916,9.781,9.781,0,0,0,3.525,1.042c.084,0,.172.008.252.008a3.019,3.019,0,0,0,2.312-.994c0-.008.012-.012.016-.02a9.107,9.107,0,0,1,.7-.725c.172-.164.349-.337.521-.517a2,2,0,0,0,.6-1.386,1.925,1.925,0,0,0-.617-1.374Zm1.434,4.219s0,0,0,0c-.156.168-.316.32-.489.489a10.534,10.534,0,0,0-.773.8A1.931,1.931,0,0,1,14,44.212c-.06,0-.124,0-.184,0a8.689,8.689,0,0,1-3.125-.937A17.8,17.8,0,0,1,4.776,38.64a16.265,16.265,0,0,1-2.884-4.8,5.72,5.72,0,0,1-.449-2.508A1.839,1.839,0,0,1,2,30.138l1.366-1.366a.911.911,0,0,1,.609-.284.857.857,0,0,1,.585.28l.012.012c.244.228.477.465.721.717.124.128.252.256.381.389L6.763,30.98a.765.765,0,0,1,0,1.242c-.116.116-.228.232-.345.345-.337.345-.657.665-1.006.978-.008.008-.016.012-.02.02a.817.817,0,0,0-.208.909l.012.036A8.781,8.781,0,0,0,6.491,36.62l0,0a14.7,14.7,0,0,0,3.558,3.237,5.469,5.469,0,0,0,.493.268c.144.072.28.14.4.212.016.008.032.02.048.028a.868.868,0,0,0,.4.1A.857.857,0,0,0,12,40.194l1.37-1.37a.906.906,0,0,1,.6-.3.816.816,0,0,1,.577.292l.008.008,2.207,2.207A.792.792,0,0,1,16.767,42.285Z" transform="translate(-0.344 -26.308)" fill="#8c8a8a"/>
      <path id="Path_262" data-name="Path 262" d="M245.389,87a5.156,5.156,0,0,1,4.2,4.2.538.538,0,0,0,.533.449.715.715,0,0,0,.092-.008.541.541,0,0,0,.445-.625,6.234,6.234,0,0,0-5.08-5.08.544.544,0,0,0-.625.441A.535.535,0,0,0,245.389,87Z" transform="translate(-235.145 -82.483)" fill="#8c8a8a"/>
      <path id="Path_263" data-name="Path 263" d="M257.769,8.373A10.266,10.266,0,0,0,249.4.008a.54.54,0,1,0-.176,1.066A9.169,9.169,0,0,1,256.7,8.55a.538.538,0,0,0,.533.449.715.715,0,0,0,.092-.008A.531.531,0,0,0,257.769,8.373Z" transform="translate(-238.823 0)" fill="#8c8a8a"/>
    </g>
  </g>
</svg>
