<svg xmlns="http://www.w3.org/2000/svg" width="39.544" height="39.669" viewBox="0 0 39.544 39.669">
  <path id="food-tray" d="M38.762,17.667h-.074A13.539,13.539,0,0,0,34.7,8.593a.58.58,0,0,0-.819.821,12.387,12.387,0,0,1,3.65,8.253H12.281a.58.58,0,1,0,0,1.16H38.762a.43.43,0,0,1,.429.429v.666a.43.43,0,0,1-.429.429H6.879a.43.43,0,0,1-.429-.429v-.666a.43.43,0,0,1,.429-.429h2.93a.58.58,0,1,0,0-1.16H8.114a12.493,12.493,0,0,1,12.464-11.9h4.486a12.414,12.414,0,0,1,6.991,2.141.58.58,0,0,0,.651-.96,13.57,13.57,0,0,0-7.642-2.341h-.387V3.592l.515-.717A1.816,1.816,0,0,0,23.716,0H21.925A1.816,1.816,0,0,0,20.45,2.876l.515.717V4.608h-.387A13.655,13.655,0,0,0,6.952,17.667H6.879A1.591,1.591,0,0,0,5.29,19.256v.666a1.591,1.591,0,0,0,1.4,1.577l1.4,3.024a3.528,3.528,0,0,0,2.03,1.841c-.066.062-.131.124-.2.188L7.573,28.906a1.582,1.582,0,0,0-1.287.476L.969,34.906a.58.58,0,0,0,.836.8l5.317-5.524a.425.425,0,0,1,.58-.029l5.084,4.309a.424.424,0,0,1,.046.6L9.668,38.708a.58.58,0,0,0,.876.761l3.164-3.641a1.573,1.573,0,0,0,.384-1.16c0-.009,0-.017,0-.026l1.537-1.537H23.35a4.875,4.875,0,0,0,3.305-1.287L28.087,30.5a.58.58,0,0,0-.784-.855L25.87,30.964a3.718,3.718,0,0,1-2.521.981H15.386a.58.58,0,0,0-.41.17l-1.453,1.453L8.666,29.453l2.08-2.08a6.9,6.9,0,0,1,4.913-2.035h8.606a.814.814,0,1,1,0,1.628H19.732a.58.58,0,0,0,0,1.16h4.533a1.966,1.966,0,0,0,1.32-.508L31.1,24.562a.6.6,0,0,1,.66.054.6.6,0,0,1,.034.909l-2.672,2.452a.58.58,0,1,0,.784.855l2.468-2.265h1.979a3.531,3.531,0,0,0,3.2-2.043l1.4-3.024a1.591,1.591,0,0,0,1.4-1.577v-.666a1.591,1.591,0,0,0-1.589-1.589ZM22.016,3.067,21.392,2.2a.656.656,0,0,1,.533-1.039h1.791A.656.656,0,0,1,24.249,2.2l-.624.868a.58.58,0,0,0-.109.338v1.2H22.124v-1.2a.58.58,0,0,0-.109-.338ZM36.5,24.037a2.367,2.367,0,0,1-2.142,1.37H33.12a1.758,1.758,0,0,0-2.58-1.86l-4.313,2.39a1.977,1.977,0,0,0-1.962-1.758H15.659a8.055,8.055,0,0,0-4.3,1.229h-.077a2.367,2.367,0,0,1-2.142-1.37L7.976,21.512H37.664Z" transform="translate(-0.807 0)" fill="#747171"/>
</svg>
