<svg xmlns="http://www.w3.org/2000/svg" width="19.635" height="18.332" viewBox="0 0 19.635 18.332">
  <g id="hairdryer" transform="translate(0 -16.987)">
    <path id="Path_60" data-name="Path 60" d="M66.8,84.618a1.8,1.8,0,1,0-1.8-1.8A1.8,1.8,0,0,0,66.8,84.618Zm0-2.454a.652.652,0,1,1-.652.652A.653.653,0,0,1,66.8,82.163Z" transform="translate(-62.507 -61.571)" fill="#8c8a8a"/>
    <path id="Path_61" data-name="Path 61" d="M15.7,18.525l-3.055-.305C3.786,16.906,4.361,16.988,4.3,16.988A4.281,4.281,0,0,0,0,21.245a4.2,4.2,0,0,0,.667,2.276c.01.045.513,1.8,2.461,8.619a.575.575,0,0,0,.553.417h.345v2.186a.575.575,0,0,0,1.15,0V32.558h.652a.575.575,0,0,0,.575-.575V25.2l6.245-.925,3.055-.305a.575.575,0,0,0,.518-.572V19.1a.575.575,0,0,0-.518-.572ZM4.254,18.139,12,19.287V23.2L4.254,24.351a3.106,3.106,0,0,1,0-6.212Zm1,13.268H4.115l-1.829-6.4a4.3,4.3,0,0,0,2.008.5c.06,0,.015,0,.959-.136Zm9.817-8.536-1.917.192V19.426l1.917.192Z" fill="#8c8a8a"/>
    <path id="Path_62" data-name="Path 62" d="M457.575,82.163h.959a.575.575,0,1,0,0-1.15h-.959a.575.575,0,1,0,0,1.15Z" transform="translate(-439.475 -61.571)" fill="#8c8a8a"/>
    <path id="Path_63" data-name="Path 63" d="M458.534,145.013h-.959a.575.575,0,1,0,0,1.15h.959a.575.575,0,1,0,0-1.15Z" transform="translate(-439.475 -123.116)" fill="#8c8a8a"/>
  </g>
</svg>
