<svg xmlns="http://www.w3.org/2000/svg" width="37.868" height="39.016" viewBox="0 0 37.868 39.016">
  <g id="Hotel-Type" transform="translate(-7.538)">
    <g id="Group_281" data-name="Group 281" transform="translate(7.538 0)">
      <g id="Group_280" data-name="Group 280">
        <g id="Group_279" data-name="Group 279">
          <g id="Group_278" data-name="Group 278">
            <path id="Path_525" data-name="Path 525" d="M185.355,205.036H182.2a.762.762,0,0,0-.762.762v3.932a.762.762,0,0,0,.762.762h3.156a.762.762,0,0,0,.762-.762V205.8A.762.762,0,0,0,185.355,205.036Zm-.762,3.932h-1.631V206.56h1.631Z" transform="translate(-168.185 -189.411)" fill="#747171"/>
            <path id="Path_526" data-name="Path 526" d="M269.916,210.492h3.156a.762.762,0,0,0,.762-.762V205.8a.762.762,0,0,0-.762-.762h-3.156a.762.762,0,0,0-.762.762v3.932A.762.762,0,0,0,269.916,210.492Zm.762-3.932h1.631v2.408h-1.631Z" transform="translate(-249.218 -189.411)" fill="#747171"/>
            <path id="Path_527" data-name="Path 527" d="M185.355,301.4H182.2a.762.762,0,0,0-.762.762v3.932a.762.762,0,0,0,.762.762h3.156a.762.762,0,0,0,.762-.762v-3.932A.762.762,0,0,0,185.355,301.4Zm-.762,3.932h-1.631v-2.408h1.631Z" transform="translate(-168.185 -278.431)" fill="#747171"/>
            <path id="Path_528" data-name="Path 528" d="M273.834,306.094v-3.932a.762.762,0,0,0-.762-.762h-3.156a.762.762,0,0,0-.762.762v3.932a.762.762,0,0,0,.762.762h3.156A.762.762,0,0,0,273.834,306.094Zm-1.524-.762h-1.631v-2.408h1.631Z" transform="translate(-249.218 -278.432)" fill="#747171"/>
            <path id="Path_529" data-name="Path 529" d="M45.406,165.788a5.685,5.685,0,0,0-1.518-3.871s0-.007,0-.01v-9.543a.762.762,0,0,0-.762-.762H35.5v-.8a.762.762,0,0,0-.762-.762H18.209a.762.762,0,0,0-.762.762v.8H9.818a.762.762,0,0,0-.762.762v9.553a5.7,5.7,0,0,0,0,7.742v7.2a.762.762,0,0,0,.762.762H43.126a.762.762,0,0,0,.762-.762v-7.2A5.685,5.685,0,0,0,45.406,165.788ZM12.489,176.1H10.58v-5.268a5.676,5.676,0,0,0,1.909.613V176.1ZM9.062,165.788a4.189,4.189,0,1,1,4.189,4.185A4.192,4.192,0,0,1,9.062,165.788ZM17.447,176.1H14.014v-4.656a5.708,5.708,0,0,0,3.433-1.787Zm0-14.185a5.709,5.709,0,0,0-6.867-1.174v-7.616h6.867Zm26.435,3.872a4.189,4.189,0,1,1-4.189-4.185A4.192,4.192,0,0,1,43.881,165.788ZM38.93,176.1H35.5v-6.442a5.707,5.707,0,0,0,3.433,1.787Zm-9.844,0H23.858v-4.878h5.228Zm.762-6.4H23.1a.762.762,0,0,0-.762.762v5.64H18.971V151.567h15V155.2a.762.762,0,1,0,1.524,0v-2.075h6.867v7.616a5.709,5.709,0,0,0-6.883,1.191.762.762,0,0,0-1.508.157V176.1H30.61v-5.64a.762.762,0,0,0-.762-.762Zm10.606,6.4v-4.656a5.672,5.672,0,0,0,1.909-.613V176.1Z" transform="translate(-7.538 -138.609)" fill="#747171"/>
            <path id="Path_530" data-name="Path 530" d="M354.51,254.192a.762.762,0,1,0,.28-.925A.769.769,0,0,0,354.51,254.192Z" transform="translate(-328.017 -233.851)" fill="#747171"/>
            <path id="Path_531" data-name="Path 531" d="M195.208,5.958l-.191,2.354a.762.762,0,0,0,1.053.765l2.18-.909,2.18.909a.762.762,0,0,0,1.053-.765l-.191-2.354,1.538-1.792a.762.762,0,0,0-.4-1.238l-2.3-.546L198.9.365a.762.762,0,0,0-1.3,0L196.37,2.382l-2.3.546a.762.762,0,0,0-.4,1.238Zm1.823-2.166a.762.762,0,0,0,.475-.345l.744-1.221.744,1.221a.762.762,0,0,0,.475.345l1.391.33-.931,1.085a.762.762,0,0,0-.181.558l.116,1.425-1.319-.55a.762.762,0,0,0-.587,0l-1.319.55.116-1.425a.762.762,0,0,0-.181-.558l-.931-1.085Z" transform="translate(-179.316 0)" fill="#747171"/>
            <path id="Path_532" data-name="Path 532" d="M327.084,41.9l-.143,1.759a.762.762,0,0,0,1.053.765l1.628-.679,1.628.679a.762.762,0,0,0,1.053-.765l-.143-1.759,1.149-1.339a.762.762,0,0,0-.4-1.238l-1.717-.408-.918-1.507a.762.762,0,0,0-1.3,0l-.918,1.507-1.717.408a.762.762,0,0,0-.4,1.238Zm1.631-1.575a.762.762,0,0,0,.475-.345l.433-.71.433.71a.762.762,0,0,0,.475.345l.809.192-.542.631a.762.762,0,0,0-.181.558l.067.829-.768-.32a.762.762,0,0,0-.587,0l-.768.32.067-.829a.762.762,0,0,0-.181-.558l-.542-.631Z" transform="translate(-301.502 -34.222)" fill="#747171"/>
            <path id="Path_533" data-name="Path 533" d="M85.971,41.9l-.143,1.759a.762.762,0,0,0,1.053.765l1.628-.679,1.628.679a.762.762,0,0,0,1.053-.765L91.049,41.9,92.2,40.565a.762.762,0,0,0-.4-1.238l-1.717-.408-.918-1.507a.762.762,0,0,0-1.3,0l-.918,1.507-1.717.408a.762.762,0,0,0-.4,1.238ZM87.6,40.329a.762.762,0,0,0,.475-.345l.433-.71.433.71a.762.762,0,0,0,.475.345l.809.192-.542.631a.762.762,0,0,0-.181.558l.067.829-.768-.32a.762.762,0,0,0-.587,0l-.768.32.067-.829a.762.762,0,0,0-.181-.558l-.542-.631Z" transform="translate(-78.763 -34.224)" fill="#747171"/>
          </g>
        </g>
      </g>
    </g>
  </g>
</svg>
