<svg xmlns="http://www.w3.org/2000/svg" width="17.629" height="19.649" viewBox="0 0 17.629 19.649">
  <g id="hotel-safe" transform="translate(-0.17)">
    <g id="_003---Safe" data-name="003---Safe" transform="translate(0.17)">
      <path id="Shape" d="M1.479,17.652v.688a1.31,1.31,0,0,0,1.31,1.31h3.22a1.31,1.31,0,0,0,1.31-1.31v-.655h3.275v.655a1.31,1.31,0,0,0,1.31,1.31h3.22a1.31,1.31,0,0,0,1.31-1.31v-.682a1.637,1.637,0,0,0,1.365-1.61V1.637A1.639,1.639,0,0,0,16.161,0H1.807A1.639,1.639,0,0,0,.17,1.637v1.31a.327.327,0,0,0,.655,0V1.637A.982.982,0,0,1,1.807.655H16.161a.982.982,0,0,1,.982.982v14.41a.982.982,0,0,1-.982.982H1.807a.982.982,0,0,1-.982-.982V4.585a.327.327,0,0,0-.655,0V16.047a1.64,1.64,0,0,0,1.309,1.6Zm14.3.033v.655a.655.655,0,0,1-.655.655H11.9a.655.655,0,0,1-.655-.655v-.655Zm-9.115,0v.655a.655.655,0,0,1-.655.655H2.789a.655.655,0,0,1-.655-.655v-.655Z" transform="translate(-0.17)" fill="#8c8a8a"/>
      <path id="Shape-2" data-name="Shape" d="M7.327,15.842A.327.327,0,0,0,7,16.17v2.947a.982.982,0,0,0,.982.982H19.117a.982.982,0,0,0,.982-.982V18.79a.982.982,0,0,0,.982-.982V15.842a.982.982,0,0,0-.982-.982V12.24a.982.982,0,0,0,.982-.982V9.292A.982.982,0,0,0,20.1,8.31V7.982A.982.982,0,0,0,19.117,7H7.982A.982.982,0,0,0,7,7.982v6.55a.327.327,0,0,0,.655,0V7.982a.327.327,0,0,1,.327-.327H19.117a.327.327,0,0,1,.327.327V8.31a.982.982,0,0,0-.982.982v1.965a.982.982,0,0,0,.982.982v2.62a.982.982,0,0,0-.982.982v1.965a.982.982,0,0,0,.982.982v.327a.327.327,0,0,1-.327.327H7.982a.327.327,0,0,1-.327-.327V16.17A.327.327,0,0,0,7.327,15.842Zm11.79-4.585V9.292a.327.327,0,0,1,.327-.327H20.1a.327.327,0,0,1,.327.327v1.965a.327.327,0,0,1-.327.327h-.655A.327.327,0,0,1,19.117,11.257Zm0,6.55V15.842a.327.327,0,0,1,.327-.327H20.1a.327.327,0,0,1,.327.327v1.965a.327.327,0,0,1-.327.327h-.655A.327.327,0,0,1,19.117,17.807Z" transform="translate(-4.763 -4.708)" fill="#8c8a8a"/>
      <path id="Shape-3" data-name="Shape" d="M15.295,20.433a3.93,3.93,0,1,0,0-3.008,3.93,3.93,0,0,0,0,3.008Zm2.081-4.388.119.288a.327.327,0,1,0,.6-.251l-.119-.288a3.245,3.245,0,0,1,1.889,0l-.119.288a.327.327,0,1,0,.6.251l.119-.288a3.246,3.246,0,0,1,1.336,1.336l-.288.119a.327.327,0,1,0,.251.6l.288-.119a3.245,3.245,0,0,1,0,1.889l-.288-.119a.327.327,0,1,0-.251.6l.288.119a3.246,3.246,0,0,1-1.336,1.336l-.119-.288a.327.327,0,1,0-.6.251l.119.288a3.245,3.245,0,0,1-1.889,0l.119-.288a.327.327,0,1,0-.6-.251l-.119.288a3.246,3.246,0,0,1-1.336-1.336l.288-.119a.327.327,0,1,0-.251-.6l-.288.119a3.245,3.245,0,0,1,0-1.889l.288.119a.327.327,0,1,0,.251-.6l-.288-.119a3.246,3.246,0,0,1,1.336-1.336Z" transform="translate(-10.139 -10.087)" fill="#8c8a8a"/>
      <path id="Shape-4" data-name="Shape" d="M22.966,24.93a1.965,1.965,0,1,0-1.818-1.212,1.965,1.965,0,0,0,1.818,1.212Zm-.5-3.177a1.307,1.307,0,1,1-.712.709,1.31,1.31,0,0,1,.712-.709Z" transform="translate(-14.177 -14.123)" fill="#8c8a8a"/>
      <path id="Shape-5" data-name="Shape" d="M12.965,11H11.327a.327.327,0,0,0-.327.327v1.637a.327.327,0,0,0,.655,0v-1.31h1.31a.327.327,0,0,0,0-.655Z" transform="translate(-7.453 -7.398)" fill="#8c8a8a"/>
    </g>
  </g>
</svg>
