<svg xmlns="http://www.w3.org/2000/svg"  width="16.125" height="14.973" viewBox="0 0 16.125 14.973">
  <path id="Icon_ionic-ios-star" data-name="Icon ionic-ios-star" d="M17.763,8.558H12.468l-1.609-4.8a.583.583,0,0,0-1.094,0l-1.609,4.8H2.826a.578.578,0,0,0-.576.576.423.423,0,0,0,.011.1.553.553,0,0,0,.241.407L6.854,12.7,5.183,17.56a.578.578,0,0,0,.2.648.557.557,0,0,0,.324.14.706.706,0,0,0,.36-.13l4.247-3.027,4.247,3.027a.674.674,0,0,0,.36.13.517.517,0,0,0,.32-.14.57.57,0,0,0,.2-.648L13.768,12.7l4.316-3.1.1-.09a.55.55,0,0,0-.425-.961Z" transform="translate(-2.25 -3.375)" fill="#f99c00"/>
</svg>
