<svg xmlns="http://www.w3.org/2000/svg" width="19.732" height="19.73" viewBox="0 0 19.732 19.73">
  <g id="Internet-access" transform="translate(0 -0.022)">
    <g id="Group_1" data-name="Group 1" transform="translate(0 0.022)">
      <path id="Path_7" data-name="Path 7" d="M9.854.022A9.88,9.88,0,0,0,8.8.079a9.313,9.313,0,0,0-.955.152l-.182.04A9.866,9.866,0,0,0,2.791,3q-.185.19-.362.39A9.877,9.877,0,0,0,16.918,16.8q.185-.19.362-.39A9.877,9.877,0,0,0,9.854.022ZM3.23,3.491c.052-.054.106-.106.159-.158s.122-.121.185-.179.112-.1.168-.151.127-.113.192-.167.116-.095.175-.142.132-.105.2-.156.121-.089.182-.132.137-.1.206-.144.125-.083.188-.123.141-.09.213-.132l.194-.113q.109-.062.22-.121l.2-.1c.075-.038.151-.074.227-.11s.134-.063.2-.092l.234-.1c.068-.028.136-.055.2-.082s.16-.059.241-.087.138-.048.207-.071.165-.051.248-.075.138-.041.208-.06l.08-.019a8.169,8.169,0,0,0-2.1,3.417A11.058,11.058,0,0,1,3.2,3.523Zm-.473.53a11.439,11.439,0,0,0,2.5.994A17.085,17.085,0,0,0,4.591,9.57H.643A9.2,9.2,0,0,1,2.757,4.021Zm0,11.757A9.2,9.2,0,0,1,.643,10.228H4.591a17.083,17.083,0,0,0,.665,4.555A11.447,11.447,0,0,0,2.757,15.778Zm4.722,3.028c-.067-.017-.135-.039-.2-.059s-.167-.049-.249-.075-.138-.046-.206-.07-.162-.057-.242-.087-.136-.053-.2-.081l-.235-.1q-.1-.044-.2-.092l-.23-.111c-.066-.033-.132-.066-.2-.1s-.148-.081-.222-.123-.128-.074-.192-.112-.144-.088-.215-.134-.125-.08-.187-.122-.14-.1-.208-.146-.121-.086-.18-.132-.135-.1-.2-.158-.116-.093-.173-.14-.129-.112-.193-.168-.112-.1-.167-.149-.124-.12-.185-.18-.107-.1-.159-.158L3.2,16.277a11.05,11.05,0,0,1,2.256-.869,8.171,8.171,0,0,0,2.1,3.417Zm2.046.286c-1.409-.2-2.644-1.671-3.421-3.842a16.732,16.732,0,0,1,3.421-.4v4.245Zm0-4.9a17.339,17.339,0,0,0-3.628.433,16.471,16.471,0,0,1-.648-4.393H9.525v3.96Zm0-4.619H5.249A16.467,16.467,0,0,1,5.9,5.177a17.344,17.344,0,0,0,3.628.433Zm0-4.619a16.714,16.714,0,0,1-3.421-.4C6.881,2.377,8.116.907,9.525.706V4.951Zm7.427-.93A9.2,9.2,0,0,1,19.065,9.57H15.118a17.083,17.083,0,0,0-.665-4.555A11.451,11.451,0,0,0,16.952,4.021ZM12.227.993c.069.017.138.039.206.059s.167.049.249.075.138.046.206.07.162.057.242.087.136.053.2.081l.235.1q.1.044.2.092l.23.111c.066.033.132.066.2.1s.148.081.222.123.128.074.192.112.144.088.215.134.125.08.187.122.139.1.208.146.121.087.18.132.134.1.2.157.116.092.173.14.129.112.193.168.112.1.167.149.124.12.185.18.107.1.159.158l.028.031a11.05,11.05,0,0,1-2.256.869A8.171,8.171,0,0,0,12.147.973ZM10.183.706c1.409.2,2.644,1.671,3.421,3.842a16.732,16.732,0,0,1-3.421.4V.706Zm0,4.9a17.338,17.338,0,0,0,3.628-.433,16.471,16.471,0,0,1,.648,4.393H10.183Zm0,4.619h4.276a16.468,16.468,0,0,1-.648,4.393h0a17.344,17.344,0,0,0-3.628-.433Zm0,8.864V14.847a16.714,16.714,0,0,1,3.421.4C12.827,17.421,11.592,18.892,10.183,19.092Zm6.295-2.784c-.052.054-.106.105-.159.158s-.122.121-.185.18-.111.1-.167.15-.127.113-.193.168-.116.094-.175.141-.132.105-.2.156-.121.089-.182.132-.137.1-.206.144-.125.083-.188.123-.141.089-.213.132l-.194.113q-.109.062-.22.121l-.2.1c-.075.038-.151.074-.227.11s-.134.063-.2.092l-.234.1c-.068.028-.136.055-.2.081s-.161.059-.242.087-.137.048-.206.07-.165.051-.249.075c-.069.02-.138.041-.207.06l-.08.019a8.169,8.169,0,0,0,2.1-3.417,11.059,11.059,0,0,1,2.256.868Zm.473-.53a11.439,11.439,0,0,0-2.5-.994,17.085,17.085,0,0,0,.665-4.555h3.948A9.2,9.2,0,0,1,16.952,15.778Z" transform="translate(0 -0.022)" fill="#8c8a8a"/>
    </g>
  </g>
</svg>
