<svg xmlns="http://www.w3.org/2000/svg" width="20.062" height="22.196" viewBox="0 0 20.062 22.196">
  <g id="laundry-service" transform="translate(-0.5)">
    <path id="Path_330" data-name="Path 330" d="M18.642,0H2.421A1.923,1.923,0,0,0,.5,1.921V20.275A1.923,1.923,0,0,0,2.421,22.2h16.22a1.923,1.923,0,0,0,1.921-1.921V1.921A1.923,1.923,0,0,0,18.642,0ZM1.781,1.921a.641.641,0,0,1,.64-.64h16.22a.641.641,0,0,1,.64.64V4.482H1.781Zm17.5,18.355a.641.641,0,0,1-.64.64H2.421a.641.641,0,0,1-.64-.64V5.762h17.5Zm0,0" fill="#8c8a8a"/>
    <path id="Path_331" data-name="Path 331" d="M287.952,51.691h-1.28a.64.64,0,0,0,0,1.281h1.28a.64.64,0,0,0,0-1.281Zm0,0" transform="translate(-273.152 -49.45)" fill="#8c8a8a"/>
    <path id="Path_332" data-name="Path 332" d="M366.737,51.691h-1.28a.64.64,0,1,0,0,1.281h1.28a.64.64,0,0,0,0-1.281Zm0,0" transform="translate(-348.522 -49.45)" fill="#8c8a8a"/>
    <path id="Path_333" data-name="Path 333" d="M89.117,171.111a6.189,6.189,0,1,0,12.379,0q0-.249-.02-.493v0a6.189,6.189,0,0,0-12.339,0,.01.01,0,0,0,0,0Q89.117,170.861,89.117,171.111Zm6.189,4.909a4.915,4.915,0,0,1-4.9-4.581,2.808,2.808,0,0,1,.4.218,3.1,3.1,0,0,0,3.445,0,1.832,1.832,0,0,1,2.1,0,3.106,3.106,0,0,0,3.446,0,2.8,2.8,0,0,1,.4-.218,4.915,4.915,0,0,1-4.9,4.581Zm0-9.818a4.917,4.917,0,0,1,4.809,3.923,3.164,3.164,0,0,0-.983.441,1.832,1.832,0,0,1-2.1,0,3.1,3.1,0,0,0-3.446,0,1.832,1.832,0,0,1-2.1,0,3.155,3.155,0,0,0-.983-.441,4.917,4.917,0,0,1,4.809-3.923Zm0,0" transform="translate(-84.775 -157.772)" fill="#8c8a8a"/>
  </g>
</svg>
