<svg xmlns="http://www.w3.org/2000/svg" width="23.439" height="16.114" viewBox="0 0 23.439 16.114">
  <g id="mastercard" transform="translate(0 -80)">
    <path id="Path_272" data-name="Path 272" d="M20.875,80H2.564A2.567,2.567,0,0,0,0,82.564V93.551a2.567,2.567,0,0,0,2.564,2.564H20.875a2.567,2.567,0,0,0,2.564-2.564V82.564A2.567,2.567,0,0,0,20.875,80ZM2.564,81.465H20.875a1.1,1.1,0,0,1,1.1,1.1v1.465H1.465V82.564A1.1,1.1,0,0,1,2.564,81.465ZM20.875,94.649H2.564a1.1,1.1,0,0,1-1.1-1.1V85.493H21.974v8.057A1.1,1.1,0,0,1,20.875,94.649Z" fill="#8c8a8a"/>
    <path id="Path_273" data-name="Path 273" d="M81.465,306.2h-.732a.732.732,0,0,1-.732-.732v-.732a.733.733,0,0,1,.732-.732h.732a.733.733,0,0,1,.732.732v.732A.732.732,0,0,1,81.465,306.2Z" transform="translate(-76.338 -213.746)" fill="#8c8a8a"/>
  </g>
</svg>
