<svg xmlns="http://www.w3.org/2000/svg" width="24.716" height="22.785" viewBox="0 0 24.716 22.785">
  <g id="Medical-Assistance" transform="translate(0 -20)">
    <path id="Path_351" data-name="Path 351" d="M22.3,23.862H19.02V21.448A1.45,1.45,0,0,0,17.571,20H7.144A1.45,1.45,0,0,0,5.7,21.448v2.414H2.414A2.416,2.416,0,0,0,0,26.276v14.1a2.416,2.416,0,0,0,2.414,2.414H22.3a2.416,2.416,0,0,0,2.414-2.414v-14.1A2.416,2.416,0,0,0,22.3,23.862Zm-13.71,0V22.9h7.531v.965ZM22.3,41.819H2.414A1.45,1.45,0,0,1,.965,40.371V30.51a2.4,2.4,0,0,0,1.448.484H3.863v.3a1.545,1.545,0,1,0,3.089,0v-.3H17.763v.3a1.545,1.545,0,1,0,3.089,0v-.3H22.3a2.4,2.4,0,0,0,1.448-.484v9.861A1.45,1.45,0,0,1,22.3,41.819ZM4.828,31.3V29.728a.579.579,0,1,1,1.159,0V31.3a.579.579,0,0,1-1.159,0Zm13.9,0V29.728a.579.579,0,1,1,1.159,0V31.3a.579.579,0,1,1-1.159,0Zm5.021-2.715A1.45,1.45,0,0,1,22.3,30.029H20.853v-.3a1.545,1.545,0,0,0-3.089,0v.3H6.952v-.3a1.545,1.545,0,0,0-3.089,0v.3H2.414A1.45,1.45,0,0,1,.965,28.581V26.276a1.45,1.45,0,0,1,1.448-1.448H22.3a1.45,1.45,0,0,1,1.448,1.448Z" fill="#8c8a8a"/>
    <path id="XMLID_7_" d="M199.862,305.188V303.74h1.448a.483.483,0,0,0,.483-.483v-.965a.483.483,0,0,0-.483-.483h-1.448v-1.448a.483.483,0,0,0-.483-.483h-.965a.483.483,0,0,0-.483.483v1.448h-1.448a.483.483,0,0,0-.483.483v.965a.483.483,0,0,0,.483.483h1.448v1.448a.483.483,0,0,0,.483.483h.965A.483.483,0,0,0,199.862,305.188Z" transform="translate(-186.538 -266.367)" fill="#8c8a8a"/>
  </g>
</svg>
