<svg xmlns="http://www.w3.org/2000/svg" width="15.7" height="21.045" viewBox="0 0 15.7 21.045">
  <g id="minibar" transform="translate(-68 -4)">
    <g id="linear_color" data-name="linear color" transform="translate(68 4)">
      <path id="Path_2" data-name="Path 2" d="M83.626,6.91a.5.5,0,0,0-.426-.238H81.351c0-.024-.011-.047-.016-.07a2.992,2.992,0,0,0,1.7-2.1.5.5,0,0,0-.5-.5h0a.5.5,0,0,0-.5.5A2.3,2.3,0,0,1,80.914,5.69a2.548,2.548,0,0,0-.279-.319,2.506,2.506,0,0,0-4.2,1.3H68.5a.5.5,0,0,0-.448.725,34.821,34.821,0,0,0,2.461,4.074c1.774,2.5,3.4,3.9,4.835,4.171v6.095c-.543.824-2.913,1.856-4.334,2.33a.5.5,0,0,0,.159.977h9.353a.5.5,0,0,0,.159-.976c-1.422-.474-3.791-1.507-4.334-2.331V15.643c1.437-.268,3.061-1.667,4.835-4.171A34.822,34.822,0,0,0,83.648,7.4.5.5,0,0,0,83.626,6.91ZM81.8,8.677h-.9a2.487,2.487,0,0,0,.451-1h1.016C82.215,7.951,82.022,8.294,81.8,8.677ZM77.814,6.13a1.493,1.493,0,0,1,1.055-.459,1.5,1.5,0,1,1-1.055.459ZM76.439,7.675a2.471,2.471,0,0,0,.451,1H69.905c-.226-.383-.419-.725-.571-1Zm1.533,16.368H73.729a8,8,0,0,0,2.122-1.356,8,8,0,0,0,2.122,1.356ZM75.851,14.69c-1.178,0-2.78-1.345-4.512-3.788-.292-.413-.568-.826-.82-1.223H81.182c-.252.4-.527.81-.82,1.223C78.63,13.344,77.028,14.69,75.851,14.69Z" transform="translate(-68 -4)" fill="#8c8a8a"/>
      <ellipse id="Ellipse_1" data-name="Ellipse 1" cx="0.524" cy="0.486" rx="0.524" ry="0.486" transform="translate(8.83 6.527)" fill="#8c8a8a"/>
      <ellipse id="Ellipse_2" data-name="Ellipse 2" cx="0.524" cy="0.486" rx="0.524" ry="0.486" transform="translate(5.837 7.201)" fill="#8c8a8a"/>
      <ellipse id="Ellipse_3" data-name="Ellipse 3" cx="0.524" cy="0.486" rx="0.524" ry="0.486" transform="translate(7.483 8.548)" fill="#8c8a8a"/>
    </g>
  </g>
</svg>
