<svg xmlns="http://www.w3.org/2000/svg" width="23.285" height="17.282" viewBox="0 0 23.285 17.282">
  <g id="newspaper-kiosk" transform="translate(0 -66)">
    <path id="Path_357" data-name="Path 357" d="M21.466,68.729H17.828V66.455A.455.455,0,0,0,17.373,66H.455A.455.455,0,0,0,0,66.455V80.1a3.187,3.187,0,0,0,3.184,3.184H20.1A3.187,3.187,0,0,0,23.285,80.1V70.548A1.821,1.821,0,0,0,21.466,68.729Zm-1.574.91a1.807,1.807,0,0,0-.245.91v6.367H17.828V69.638ZM3.184,82.372A2.277,2.277,0,0,1,.91,80.1V66.91H16.918V80.1a3.174,3.174,0,0,0,.958,2.274ZM22.376,80.1a2.274,2.274,0,0,1-4.548,0V77.824H20.1a.455.455,0,0,0,.455-.455V70.548a.91.91,0,0,1,1.819,0Z" fill="#8c8a8a"/>
    <path id="Path_358" data-name="Path 358" d="M71.915,126H60.455a.455.455,0,0,0-.455.455v2.729a.455.455,0,0,0,.455.455H71.915a.455.455,0,0,0,.455-.455v-2.729A.455.455,0,0,0,71.915,126Z" transform="translate(-57.271 -57.271)" fill="#8c8a8a"/>
    <path id="Path_359" data-name="Path 359" d="M63.456,246h-3a.455.455,0,0,0,0,.91h3a.455.455,0,0,0,0-.91Z" transform="translate(-57.271 -171.814)" fill="#8c8a8a"/>
    <path id="Path_360" data-name="Path 360" d="M63.456,306h-3a.455.455,0,1,0,0,.91h3a.455.455,0,1,0,0-.91Z" transform="translate(-57.271 -229.085)" fill="#8c8a8a"/>
    <path id="Path_361" data-name="Path 361" d="M63.456,366h-3a.455.455,0,1,0,0,.91h3a.455.455,0,1,0,0-.91Z" transform="translate(-57.271 -286.356)" fill="#8c8a8a"/>
    <path id="Path_362" data-name="Path 362" d="M192.185,366h-5.73a.455.455,0,1,0,0,.91h5.73a.455.455,0,1,0,0-.91Z" transform="translate(-177.541 -286.356)" fill="#8c8a8a"/>
    <path id="Path_363" data-name="Path 363" d="M192.185,306h-5.73a.455.455,0,1,0,0,.91h5.73a.455.455,0,1,0,0-.91Z" transform="translate(-177.541 -229.085)" fill="#8c8a8a"/>
    <path id="Path_364" data-name="Path 364" d="M192.185,246h-5.73a.455.455,0,0,0,0,.91h5.73a.455.455,0,0,0,0-.91Z" transform="translate(-177.541 -171.814)" fill="#8c8a8a"/>
  </g>
</svg>
