<svg id="placeholder" xmlns="http://www.w3.org/2000/svg" width="12.5" height="16.667" viewBox="0 0 12.5 16.667">
  <g id="Group_39892" data-name="Group 39892">
    <g id="Group_39891" data-name="Group 39891">
      <path id="Path_122311" data-name="Path 122311" d="M70.25,0A6.256,6.256,0,0,0,64,6.25c0,4.332,5.642,10.024,5.881,10.265a.523.523,0,0,0,.738,0c.24-.241,5.881-5.932,5.881-10.265A6.256,6.256,0,0,0,70.25,0Zm0,15.393c-1.244-1.331-5.208-5.834-5.208-9.143a5.208,5.208,0,0,1,10.417,0C75.459,9.557,71.494,14.062,70.25,15.393Z" transform="translate(-64)" fill="gray"/>
    </g>
  </g>
  <g id="Group_39894" data-name="Group 39894" transform="translate(3.125 3.125)">
    <g id="Group_39893" data-name="Group 39893">
      <path id="Path_122312" data-name="Path 122312" d="M163.125,96a3.125,3.125,0,1,0,3.125,3.125A3.129,3.129,0,0,0,163.125,96Zm0,5.208a2.083,2.083,0,1,1,2.083-2.083A2.085,2.085,0,0,1,163.125,101.208Z" transform="translate(-160 -96)" fill="gray"/>
    </g>
  </g>
</svg>
