<svg xmlns="http://www.w3.org/2000/svg" width="19.744" height="19.634" viewBox="0 0 19.744 19.634">
  <g id="Restaurants" transform="translate(0 -0.499)">
    <path id="Path_3" data-name="Path 3" d="M68.68,14.14l1.16-.074h.006a2.732,2.732,0,0,0,2.036-1.189l.917-1.346a5.429,5.429,0,0,0,.871-3.984A1.225,1.225,0,0,0,72.52,6.529a5.428,5.428,0,0,0-3.85,1.342L67.444,8.943a2.732,2.732,0,0,0-.936,2.164s0,0,0,.006l.066,1.16A1.633,1.633,0,0,1,66.12,13.5l-9.577,9.839a1.392,1.392,0,0,0-.373,1.033,1.6,1.6,0,0,0,1.621,1.555q.064,0,.127-.005a1.392,1.392,0,0,0,.982-.5l8.618-10.685a1.634,1.634,0,0,1,1.161-.6Zm-1.621.226L58.442,25.05a.806.806,0,0,1-.57.279,1.011,1.011,0,0,1-1.11-.984.8.8,0,0,1,.207-.6l9.577-9.838a2.227,2.227,0,0,0,.62-1.669L67.1,11.082a2.143,2.143,0,0,1,.734-1.694l1.226-1.072a4.842,4.842,0,0,1,3.433-1.2.634.634,0,0,1,.594.527A4.84,4.84,0,0,1,72.31,11.2l-.917,1.346a2.143,2.143,0,0,1-1.594.932l-1.157.073a2.228,2.228,0,0,0-1.584.817Zm0,0" transform="translate(-54.002 -5.791)" fill="#8c8a8a"/>
    <path id="Path_4" data-name="Path 4" d="M297.715,292.826l-6.422-5.849a.3.3,0,1,0-.4.438l6.42,5.847a.806.806,0,0,1,.244.586,1.011,1.011,0,0,1-1.049,1.049.8.8,0,0,1-.584-.242l-5.722-6.282a.3.3,0,1,0-.438.4l5.724,6.284a1.391,1.391,0,0,0,1.009.434h.031a1.6,1.6,0,0,0,1.621-1.653A1.393,1.393,0,0,0,297.715,292.826Zm0,0" transform="translate(-278.517 -275.357)" fill="#8c8a8a"/>
    <path id="Path_5" data-name="Path 5" d="M3.572,8.292a2.741,2.741,0,0,0,1.792.725H5.37l1.162,0a1.633,1.633,0,0,1,1.194.527l.512.562a.3.3,0,1,0,.438-.4l-.513-.563a2.227,2.227,0,0,0-1.629-.719l-1.159,0a2.151,2.151,0,0,1-1.389-.556l-3.368-4a.1.1,0,0,1,.15-.138L3.834,6.793a.778.778,0,0,0,1.1,0l.36-.36h0l.64-.64h0l.36-.36a.778.778,0,0,0,0-1.1L3.228,1.267a.1.1,0,0,1,.138-.15l4,3.369a2.15,2.15,0,0,1,.556,1.389l0,1.159a2.229,2.229,0,0,0,.72,1.63l.549.5a.3.3,0,1,0,.4-.438l-.548-.5a1.634,1.634,0,0,1-.528-1.2l0-1.162s0,0,0-.006A2.741,2.741,0,0,0,7.793,4.07a.3.3,0,0,0-.027-.026L3.747.663a.694.694,0,0,0-.938,1.022L5.876,4.751a.186.186,0,0,1,0,.262l-.151.151L2.307,1.748a.3.3,0,1,0-.418.418L5.306,5.583,5.085,5.8,1.667,2.387a.3.3,0,0,0-.418.418L4.666,6.223l-.151.151a.186.186,0,0,1-.262,0L1.186,3.308a.694.694,0,0,0-1.022.938L3.546,8.265a.276.276,0,0,0,.026.027Zm0,0" transform="translate(0)" fill="#8c8a8a"/>
  </g>
</svg>
