<svg xmlns="http://www.w3.org/2000/svg" width="21.551" height="21.521" viewBox="0 0 21.551 21.521">
  <g id="room-service" transform="translate(0 -0.348)">
    <g id="Group_3" data-name="Group 3" transform="translate(0 11.124)">
      <g id="Group_2" data-name="Group 2">
        <path id="Path_8" data-name="Path 8" d="M5.247,257.388c-.77-.729-3.847-.965-4.772-1.02a.468.468,0,0,0-.335.121.449.449,0,0,0-.141.327V264.9a.449.449,0,0,0,.449.449H3.143a.45.45,0,0,0,.427-.31,47.073,47.073,0,0,0,1.816-7.284A.447.447,0,0,0,5.247,257.388Zm-2.432,7.06H.9V257.3a13.633,13.633,0,0,1,3.566.637A47.108,47.108,0,0,1,2.815,264.448Z" transform="translate(0 -256.368)" fill="#8c8a8a"/>
      </g>
    </g>
    <g id="Group_5" data-name="Group 5" transform="translate(3.143 16.022)">
      <g id="Group_4" data-name="Group 4">
        <path id="Path_9" data-name="Path 9" d="M93.034,374.364a2.935,2.935,0,0,0-3.356-1.544l-3.44.86a.449.449,0,0,0,.217.871l3.44-.858a2.042,2.042,0,0,1,2.079.679L87.523,376.4c-3.775,1.547-3.905,1.5-5.524.887l-6.734-2.245a.449.449,0,1,0-.284.851l6.717,2.239a5.164,5.164,0,0,0,1.861.45c.911,0,1.977-.4,4.321-1.359l4.939-2.245a.449.449,0,0,0,.216-.61Z" transform="translate(-74.674 -372.731)" fill="#8c8a8a"/>
      </g>
    </g>
    <g id="Group_7" data-name="Group 7" transform="translate(4.489 12.92)">
      <g id="Group_6" data-name="Group 6">
        <path id="Path_10" data-name="Path 10" d="M115.278,300.852l-8.081-1.8a.455.455,0,0,0-.536.341.45.45,0,0,0,.341.536l8.07,1.793c.995.249,1.394.64,1.449,1.46l-.862.215a2.246,2.246,0,0,1-.984.023l-3.9-.779a.449.449,0,0,0-.176.88l3.9.779a3.166,3.166,0,0,0,1.377-.033l1.209-.3a.449.449,0,0,0,.34-.435v-.142A2.392,2.392,0,0,0,115.278,300.852Z" transform="translate(-106.65 -299.047)" fill="#8c8a8a"/>
      </g>
    </g>
    <g id="Group_9" data-name="Group 9" transform="translate(3.592 10.225)">
      <g id="Group_8" data-name="Group 8">
        <path id="Path_11" data-name="Path 11" d="M102.843,235.015H85.782a.449.449,0,1,0,0,.9h17.061a.449.449,0,1,0,0-.9Z" transform="translate(-85.333 -235.015)" fill="#8c8a8a"/>
      </g>
    </g>
    <g id="Group_11" data-name="Group 11" transform="translate(4.49 2.144)">
      <g id="Group_10" data-name="Group 10" transform="translate(0 0)">
        <path id="Path_12" data-name="Path 12" d="M114.748,43.015a8.091,8.091,0,0,0-8.081,8.081v.449a.449.449,0,0,0,.449.449h15.265a.449.449,0,0,0,.449-.449V51.1A8.091,8.091,0,0,0,114.748,43.015ZM107.565,51.1a7.183,7.183,0,1,1,14.367,0Z" transform="translate(-106.667 -43.015)" fill="#8c8a8a"/>
      </g>
    </g>
    <g id="Group_13" data-name="Group 13" transform="translate(6.442 3.94)">
      <g id="Group_12" data-name="Group 12">
        <path id="Path_13" data-name="Path 13" d="M159.188,85.682a6.264,6.264,0,0,0-6.117,4.834.45.45,0,0,0,.333.541.419.419,0,0,0,.1.013.448.448,0,0,0,.436-.346,5.37,5.37,0,0,1,5.243-4.144.449.449,0,0,0,0-.9Z" transform="translate(-153.059 -85.682)" fill="#8c8a8a"/>
      </g>
    </g>
    <g id="Group_15" data-name="Group 15" transform="translate(10.775 0.348)">
      <g id="Group_14" data-name="Group 14" transform="translate(0 0)">
        <path id="Path_14" data-name="Path 14" d="M257.8.348a1.8,1.8,0,0,0-1.8,1.8v.449a.449.449,0,1,0,.9,0V2.144a.9.9,0,0,1,1.8,0v.449a.449.449,0,1,0,.9,0V2.144A1.8,1.8,0,0,0,257.8.348Z" transform="translate(-256 -0.348)" fill="#8c8a8a"/>
      </g>
    </g>
    <g id="Group_17" data-name="Group 17" transform="translate(4.489 10.226)">
      <g id="Group_16" data-name="Group 16">
        <path id="Path_15" data-name="Path 15" d="M122.693,235.162a.449.449,0,0,0-.635,0l-1.665,1.665h-11.3l-1.665-1.665a.449.449,0,0,0-.635.635l1.8,1.8a.452.452,0,0,0,.318.131h11.673a.452.452,0,0,0,.318-.131l1.8-1.8A.449.449,0,0,0,122.693,235.162Z" transform="translate(-106.661 -235.031)" fill="#8c8a8a"/>
      </g>
    </g>
  </g>
</svg>
