<svg xmlns="http://www.w3.org/2000/svg" width="20.865" height="45.445" viewBox="0 0 20.865 45.445">
  <g id="Group_46" data-name="Group 46" transform="translate(212.265 -130.917)">
    <path id="Path_104" data-name="Path 104" d="M158.662,72.555a.666.666,0,0,0-.666.666V86.5a1.467,1.467,0,0,1-1.466,1.466H141.26a1.467,1.467,0,0,1-1.466-1.466V68.885a2.875,2.875,0,0,1,1.317-2.422l11.6-7.513a5.539,5.539,0,0,0,2.561-4.665,6.4,6.4,0,0,0-4.642-6.136.666.666,0,1,0-.363,1.281,5.066,5.066,0,0,1,3.674,4.855,4.208,4.208,0,0,1-1.953,3.548l-11.6,7.513a4.2,4.2,0,0,0-1.925,3.539V86.5a2.8,2.8,0,0,0,2.8,2.8h15.271a2.8,2.8,0,0,0,2.8-2.8V73.22A.666.666,0,0,0,158.662,72.555Z" transform="translate(-350.728 87.065)" fill="#747171"/>
    <path id="Path_105" data-name="Path 105" d="M148.956,0h-.062a10.438,10.438,0,0,0-9.928,13.644,2.694,2.694,0,0,0,5.126-1.657,5.05,5.05,0,0,1,3.431-6.409A.666.666,0,1,0,147.16,4.3a6.382,6.382,0,0,0-4.334,8.1,1.362,1.362,0,0,1-2.592.838A9.1,9.1,0,1,1,158,10.54V26.262a.666.666,0,1,0,1.331,0V10.54A10.511,10.511,0,0,0,148.956,0Z" transform="translate(-350.728 130.917)" fill="#747171"/>
    <path id="Path_106" data-name="Path 106" d="M193.371,318.13l-3.559-3.222,1.425-1.574,2.1,1.9,4.24-4.011,1.459,1.542Z" transform="translate(-395.921 -151.694)" fill="#747171"/>
  </g>
</svg>
