<svg xmlns="http://www.w3.org/2000/svg" width="19.711" height="21.971" viewBox="0 0 19.711 21.971">
  <g id="safe" transform="translate(-0.17)">
    <g id="_003---Safe" data-name="003---Safe" transform="translate(0.17)">
      <path id="Shape" d="M1.634,19.737v.769A1.465,1.465,0,0,0,3.1,21.971H6.7a1.465,1.465,0,0,0,1.465-1.465v-.732h3.662v.732a1.465,1.465,0,0,0,1.465,1.465h3.6a1.465,1.465,0,0,0,1.465-1.465v-.763a1.831,1.831,0,0,0,1.526-1.8V1.831A1.833,1.833,0,0,0,18.05,0H2A1.833,1.833,0,0,0,.17,1.831V3.3A.366.366,0,1,0,.9,3.3V1.831A1.1,1.1,0,0,1,2,.732H18.05a1.1,1.1,0,0,1,1.1,1.1V17.943a1.1,1.1,0,0,1-1.1,1.1H2a1.1,1.1,0,0,1-1.1-1.1V5.126a.366.366,0,1,0-.732,0V17.943a1.834,1.834,0,0,0,1.464,1.794Zm15.99.037v.732a.732.732,0,0,1-.732.732h-3.6a.732.732,0,0,1-.732-.732v-.732Zm-10.192,0v.732a.732.732,0,0,1-.732.732H3.1a.732.732,0,0,1-.732-.732v-.732Z" transform="translate(-0.17)" fill="#8c8a8a"/>
      <path id="Shape-2" data-name="Shape" d="M7.366,16.887A.366.366,0,0,0,7,17.253v3.3a1.1,1.1,0,0,0,1.1,1.1h12.45a1.1,1.1,0,0,0,1.1-1.1v-.366a1.1,1.1,0,0,0,1.1-1.1v-2.2a1.1,1.1,0,0,0-1.1-1.1V12.859a1.1,1.1,0,0,0,1.1-1.1v-2.2a1.1,1.1,0,0,0-1.1-1.1V8.1a1.1,1.1,0,0,0-1.1-1.1H8.1A1.1,1.1,0,0,0,7,8.1v7.324a.366.366,0,1,0,.732,0V8.1A.366.366,0,0,1,8.1,7.732h12.45a.366.366,0,0,1,.366.366v.366a1.1,1.1,0,0,0-1.1,1.1v2.2a1.1,1.1,0,0,0,1.1,1.1v2.929a1.1,1.1,0,0,0-1.1,1.1v2.2a1.1,1.1,0,0,0,1.1,1.1v.366a.366.366,0,0,1-.366.366H8.1a.366.366,0,0,1-.366-.366v-3.3A.366.366,0,0,0,7.366,16.887ZM20.549,11.76v-2.2a.366.366,0,0,1,.366-.366h.732a.366.366,0,0,1,.366.366v2.2a.366.366,0,0,1-.366.366h-.732A.366.366,0,0,1,20.549,11.76Zm0,7.324v-2.2a.366.366,0,0,1,.366-.366h.732a.366.366,0,0,1,.366.366v2.2a.366.366,0,0,1-.366.366h-.732A.366.366,0,0,1,20.549,19.084Z" transform="translate(-4.499 -4.437)" fill="#8c8a8a"/>
      <path id="Shape-3" data-name="Shape" d="M15.33,21.075a4.394,4.394,0,1,0,0-3.363,4.394,4.394,0,0,0,0,3.363Zm2.327-4.907.133.322a.366.366,0,1,0,.676-.28l-.133-.322a3.628,3.628,0,0,1,2.112,0l-.133.322a.366.366,0,1,0,.676.28l.133-.322a3.63,3.63,0,0,1,1.493,1.494l-.322.133a.366.366,0,1,0,.28.676l.322-.133a3.628,3.628,0,0,1,0,2.112l-.322-.133a.366.366,0,1,0-.28.676l.322.133a3.63,3.63,0,0,1-1.494,1.493l-.133-.322a.366.366,0,1,0-.676.28l.133.322a3.628,3.628,0,0,1-2.112,0l.133-.322a.366.366,0,1,0-.676-.28l-.133.322a3.63,3.63,0,0,1-1.493-1.494l.322-.133a.366.366,0,1,0-.28-.676l-.322.133a3.628,3.628,0,0,1,0-2.112l.322.133a.366.366,0,1,0,.28-.676l-.322-.133a3.63,3.63,0,0,1,1.494-1.494Z" transform="translate(-9.565 -9.507)" fill="#8c8a8a"/>
      <path id="Shape-4" data-name="Shape" d="M23.2,25.394a2.2,2.2,0,1,0-2.033-1.355A2.2,2.2,0,0,0,23.2,25.394Zm-.564-3.552a1.461,1.461,0,1,1-.8.792,1.465,1.465,0,0,1,.8-.792Z" transform="translate(-13.371 -13.31)" fill="#8c8a8a"/>
      <path id="Shape-5" data-name="Shape" d="M13.2,11H11.366a.366.366,0,0,0-.366.366V13.2a.366.366,0,0,0,.732,0V11.732H13.2a.366.366,0,0,0,0-.732Z" transform="translate(-7.034 -6.972)" fill="#8c8a8a"/>
    </g>
  </g>
</svg>
