<svg xmlns="http://www.w3.org/2000/svg" width="18.466" height="23.06" viewBox="0 0 18.466 23.06">
  <g id="shower" transform="translate(-50.996)">
    <path id="Path_44" data-name="Path 44" d="M91.676,13.151h13.512a.676.676,0,0,0,.676-.676V11.125a2.03,2.03,0,0,0-1.38-1.92,5.644,5.644,0,0,0-4.025-4.836v-.9a2.03,2.03,0,0,0-1.351-1.911V.676a.676.676,0,1,0-1.351,0v.882A2.03,2.03,0,0,0,96.4,3.468v.9A5.644,5.644,0,0,0,92.38,9.2,2.03,2.03,0,0,0,91,11.125v1.351A.676.676,0,0,0,91.676,13.151Zm6.08-9.683a.676.676,0,1,1,1.351,0v.68c-.075,0-.15,0-.225,0h-.9c-.075,0-.15,0-.225,0Zm.225,2.027h.9a4.286,4.286,0,0,1,4.225,3.6H93.756A4.286,4.286,0,0,1,97.981,5.495Zm-5.63,5.63a.676.676,0,0,1,.676-.676h10.809a.676.676,0,0,1,.676.676V11.8H92.351Z" transform="translate(-38.202)" fill="#8c8a8a"/>
    <path id="Path_45" data-name="Path 45" d="M241.676,322a.676.676,0,0,0-.676.676v.676a.676.676,0,0,0,1.351,0v-.676A.676.676,0,0,0,241.676,322Z" transform="translate(-181.446 -307.498)" fill="#8c8a8a"/>
    <path id="Path_46" data-name="Path 46" d="M241.676,387a.676.676,0,0,0-.676.676v1.351a.676.676,0,1,0,1.351,0v-1.351A.676.676,0,0,0,241.676,387Z" transform="translate(-181.446 -369.57)" fill="#8c8a8a"/>
    <path id="Path_47" data-name="Path 47" d="M241.676,467a.676.676,0,0,0-.676.676v.676a.676.676,0,0,0,1.351,0v-.676A.676.676,0,0,0,241.676,467Z" transform="translate(-181.446 -445.967)" fill="#8c8a8a"/>
    <path id="Path_48" data-name="Path 48" d="M311.908,319a.676.676,0,0,0,.548-.783l-.117-.665a.676.676,0,0,0-1.331.235l.117.665a.675.675,0,0,0,.783.548Z" transform="translate(-248.291 -302.721)" fill="#8c8a8a"/>
    <path id="Path_49" data-name="Path 49" d="M323.311,383.681a.676.676,0,0,0,.548-.783l-.235-1.331a.676.676,0,0,0-1.331.235l.235,1.331a.676.676,0,0,0,.665.558A.683.683,0,0,0,323.311,383.681Z" transform="translate(-259.069 -363.85)" fill="#8c8a8a"/>
    <path id="Path_50" data-name="Path 50" d="M337.517,460.352a.676.676,0,1,0-1.331.235l.117.665a.676.676,0,0,0,1.331-.235Z" transform="translate(-272.335 -439.085)" fill="#8c8a8a"/>
    <path id="Path_51" data-name="Path 51" d="M377.814,313.075l-.231-.635a.676.676,0,1,0-1.27.462l.231.635a.676.676,0,1,0,1.27-.462Z" transform="translate(-310.626 -297.943)" fill="#8c8a8a"/>
    <path id="Path_52" data-name="Path 52" d="M400.275,374.79l-.462-1.27a.676.676,0,0,0-1.27.462l.462,1.27a.676.676,0,1,0,1.27-.462Z" transform="translate(-331.855 -356.273)" fill="#8c8a8a"/>
    <path id="Path_53" data-name="Path 53" d="M427.407,449.33l-.231-.635a.676.676,0,1,0-1.27.462l.231.635a.676.676,0,1,0,1.27-.462Z" transform="translate(-357.986 -428.062)" fill="#8c8a8a"/>
    <path id="Path_54" data-name="Path 54" d="M169.3,317.008a.675.675,0,0,0-.783.548l-.117.665a.676.676,0,1,0,1.331.235l.117-.665A.675.675,0,0,0,169.3,317.008Z" transform="translate(-112.11 -302.72)" fill="#8c8a8a"/>
    <path id="Path_55" data-name="Path 55" d="M155.529,381.02a.676.676,0,0,0-.783.548l-.235,1.331a.676.676,0,1,0,1.331.235l.235-1.331A.676.676,0,0,0,155.529,381.02Z" transform="translate(-98.844 -363.85)" fill="#8c8a8a"/>
    <path id="Path_56" data-name="Path 56" d="M144.124,459.8a.676.676,0,0,0-.783.548l-.117.665a.676.676,0,0,0,.548.783.683.683,0,0,0,.118.01.676.676,0,0,0,.664-.558l.117-.665A.676.676,0,0,0,144.124,459.8Z" transform="translate(-88.064 -439.085)" fill="#8c8a8a"/>
    <path id="Path_57" data-name="Path 57" d="M101.726,312.037a.676.676,0,0,0-.866.4l-.231.635a.676.676,0,1,0,1.27.462l.231-.635A.676.676,0,0,0,101.726,312.037Z" transform="translate(-47.358 -297.944)" fill="#8c8a8a"/>
    <path id="Path_58" data-name="Path 58" d="M74.6,373.117a.676.676,0,0,0-.866.4l-.462,1.27a.676.676,0,1,0,1.27.462l.462-1.27A.676.676,0,0,0,74.6,373.117Z" transform="translate(-21.23 -356.273)" fill="#8c8a8a"/>
    <path id="Path_59" data-name="Path 59" d="M52.134,448.293a.676.676,0,0,0-.866.4l-.231.635a.676.676,0,1,0,1.27.462l.231-.635A.676.676,0,0,0,52.134,448.293Z" transform="translate(0 -428.064)" fill="#8c8a8a"/>
  </g>
</svg>
