<svg xmlns="http://www.w3.org/2000/svg" width="40.511" height="30.034" viewBox="0 0 40.511 30.034">
  <g id="running_1_" data-name="running (1)" transform="translate(0 0)">
    <path id="Path_94" data-name="Path 94" d="M36.5,17.922l-6.052-.432-4-6.663-2-3.336V6.566a1.816,1.816,0,0,0-2.472-1.695L16.224,7.09l.435-1.459a2.711,2.711,0,0,0-1.338-3.124L10.808.084a.7.7,0,0,0-.929.256l-6.619,10.6-.14-.081a.7.7,0,0,0-.953.258l-.012.022-2.072,3.9a.7.7,0,0,0,.279.939l25.2,13.969a.7.7,0,0,0,.338.087H36.321a4.2,4.2,0,0,0,4.191-4.191V22.231A4.335,4.335,0,0,0,36.5,17.923Zm-7.512-.15-.8.266-6.25-8.126,1.607-1.206ZM10.734,1.629,14.66,3.737a1.316,1.316,0,0,1,.655,1.508l-.577,1.945-4.009-2.4L9.34,3.952ZM6.6,8.3l.358-.559,2.3,1.709a4,4,0,0,1,1.557,3.772l-.087,2.019-6.242-3.6ZM36.321,28.638H26.083L1.636,15.087l1.412-2.654L26.193,25.751a.7.7,0,0,0,.349.093H39.115a2.794,2.794,0,0,1-2.794,2.794Zm2.794-4.191H26.729l-4.791-2.758,1.611-1.642a.7.7,0,0,0-1-.978l-1.863,1.9-2.654-1.53,2.662-2.13a.7.7,0,0,0-.873-1.091l-3.09,2.472-2.274-1.308,3.451-2.876a.7.7,0,1,0-.894-1.074l-3.847,3.207-1.08-.622.113-2.681a5.364,5.364,0,0,0-2.114-5.015L7.707,6.552l.9-1.412,6.183,3.71a.683.683,0,0,0,.27.087c.017,0,.031.006.048.007s.027,0,.04,0A.694.694,0,0,0,15.4,8.9l7.075-2.729a.42.42,0,0,1,.571.395v.768L20.533,9.222a.7.7,0,0,0-.139.978l0,.006,6.985,9.08a.7.7,0,0,0,.774.237l1.963-.655,6.277.448a2.933,2.933,0,0,1,2.717,2.914Zm0,0" transform="translate(-0.001 0)" fill="#747171"/>
    <path id="Path_95" data-name="Path 95" d="M4.191,256H.7a.7.7,0,0,0,0,1.4H4.191a.7.7,0,0,0,0-1.4Zm0,0" transform="translate(0 -235.744)" fill="#747171"/>
    <path id="Path_96" data-name="Path 96" d="M0,309.663a.7.7,0,0,0,.7.7h9.08a.7.7,0,0,0,0-1.4H.7a.7.7,0,0,0-.7.7Zm0,0" transform="translate(0 -284.518)" fill="#747171"/>
    <path id="Path_97" data-name="Path 97" d="M17.462,361.934H.7a.7.7,0,1,0,0,1.4H17.462a.7.7,0,0,0,0-1.4Zm0,0" transform="translate(0 -333.296)" fill="#747171"/>
  </g>
</svg>
