<svg xmlns="http://www.w3.org/2000/svg" width="19.408" height="22.583" viewBox="0 0 19.408 22.583">
  <g id="tea-coffe-maker" transform="translate(-36)">
    <g id="Group_44" data-name="Group 44" transform="translate(36 0)">
      <path id="Path_76" data-name="Path 76" d="M54.967,4.94H52.774L47.956,2.9,48.172.48A.441.441,0,0,0,47.733,0H45.086a.441.441,0,0,0-.439.48l.216,2.42L40.24,4.94H39.088A3.091,3.091,0,0,0,36,8.028v3.087a1.323,1.323,0,0,0,2.647,0V8.028a.447.447,0,0,1,.441-.441h1.187l.948,5.37a.9.9,0,0,0,.875.806v1.764a.908.908,0,0,0-.871.783L39.9,22.043a.441.441,0,0,0,.43.54h12.35a.441.441,0,0,0,.43-.54L51.79,16.309a.908.908,0,0,0-.871-.783V13.762a.9.9,0,0,0,.875-.806l.634-3.594,2.825-2.436a.441.441,0,0,0,.153-.334V5.381a.441.441,0,0,0-.441-.441ZM47.25.882l-.165,1.852H45.734L45.568.882ZM45.423,3.617H47.4L50.516,4.94H42.425ZM39.088,6.7a1.325,1.325,0,0,0-1.323,1.323v3.087a.441.441,0,0,1-.882,0V8.028a2.208,2.208,0,0,1,2.205-2.205h.876l.156.882Zm3,6.1L40.859,5.822h2.768l.112,1.58a.441.441,0,0,0,.44.41h.031a.441.441,0,0,0,.409-.471l-.107-1.518h3.994l-.5,7.057h-3L44.9,11.3a.441.441,0,0,0-.88.062l.107,1.518H42.118A.224.224,0,0,1,42.091,12.8Zm0,3.7a.333.333,0,0,1,.038-.1h2L43.636,21.7H40.888Zm5.92-.1L48.5,21.7H44.522l.489-5.293Zm2.924.1,1.2,5.194H49.381l-.489-5.293h2a.333.333,0,0,1,.038.1Zm-.893-.981H42.98V13.762h7.057Zm.889-2.723a.224.224,0,0,1-.027.077H48.892l.5-7.057h2.768l-.571,3.234h0Zm3.6-6.414-1.854,1.6.382-2.166h1.472Z" transform="translate(-36 0)" fill="#8c8a8a"/>
      <path id="Path_77" data-name="Path 77" d="M215.037,202.879a.441.441,0,0,0,0-.882h0a.441.441,0,0,0,0,.882Z" transform="translate(-206.718 -193.087)" fill="#8c8a8a"/>
    </g>
  </g>
</svg>
