<svg xmlns="http://www.w3.org/2000/svg" width="19.287" height="21.859" viewBox="0 0 19.287 21.859">
  <g id="Visa" transform="translate(-30.125)">
    <path id="Path_489" data-name="Path 489" d="M30.125,0V21.859H49.412V0Zm1.281,1.281H32.7v19.3H31.406Zm16.725,19.3H33.978V1.281H48.131Z" fill="#8c8a8a"/>
    <path id="Path_490" data-name="Path 490" d="M159.131,74.176a5.422,5.422,0,1,0,5.422-5.422A5.428,5.428,0,0,0,159.131,74.176Zm4.565,2.35a13.97,13.97,0,0,0,1.714,0c-.064.522-.612,1.81-.857,1.791C164.387,78.389,163.78,77.2,163.7,76.526Zm-.194-1.3a12.435,12.435,0,0,1,0-2.1,12.431,12.431,0,0,1,2.1,0,12.434,12.434,0,0,1,0,2.1A12.435,12.435,0,0,1,163.5,75.227Zm3.4-.194a13.969,13.969,0,0,0,0-1.714c.522.064,1.81.612,1.791.857C168.766,74.341,167.574,74.949,166.9,75.033Zm-1.493-3.207a13.967,13.967,0,0,0-1.714,0c.064-.522.612-1.81.857-1.791C164.718,69.963,165.326,71.154,165.41,71.826Zm2.883.573a8.391,8.391,0,0,0-1.545-.417,8.383,8.383,0,0,0-.417-1.545A4.168,4.168,0,0,1,168.292,72.4Zm-1.962,5.517a8.39,8.39,0,0,0,.417-1.545,8.382,8.382,0,0,0,1.545-.417A4.168,4.168,0,0,1,166.33,77.915Zm-5.915-3.74c-.02-.245,1.268-.793,1.791-.857a13.975,13.975,0,0,0,0,1.714C161.534,74.949,160.343,74.341,160.415,74.176Zm2.364-3.74a8.382,8.382,0,0,0-.417,1.545,8.39,8.39,0,0,0-1.545.417A4.168,4.168,0,0,1,162.779,70.436Zm-1.963,5.517a8.382,8.382,0,0,0,1.545.417,8.389,8.389,0,0,0,.417,1.545A4.168,4.168,0,0,1,160.816,75.953Z" transform="translate(-123.498 -65.819)" fill="#8c8a8a"/>
    <path id="Path_491" data-name="Path 491" d="M241,421.75h3.853v1.281H241Z" transform="translate(-201.872 -403.744)" fill="#8c8a8a"/>
    <path id="Path_492" data-name="Path 492" d="M210.875,361.5H217.3v1.281h-6.425Z" transform="translate(-173.033 -346.066)" fill="#8c8a8a"/>
  </g>
</svg>
