<svg xmlns="http://www.w3.org/2000/svg" width="17.315" height="17.315" viewBox="0 0 17.315 17.315">
  <g id="wlan-access" transform="translate(0)">
    <path id="Path_506" data-name="Path 506" d="M15.254,0H2.061A2.064,2.064,0,0,0,0,2.061V15.254a2.064,2.064,0,0,0,2.061,2.061H15.254a2.064,2.064,0,0,0,2.061-2.061V2.061A2.064,2.064,0,0,0,15.254,0ZM16.3,15.254A1.048,1.048,0,0,1,15.254,16.3H2.061a1.048,1.048,0,0,1-1.047-1.047V2.061A1.048,1.048,0,0,1,2.061,1.015H15.254A1.048,1.048,0,0,1,16.3,2.061Zm0,0" transform="translate(0)" fill="#8c8a8a"/>
    <path id="Path_507" data-name="Path 507" d="M81.356,69.6H70.447a.85.85,0,0,0-.849.849v8.418a.85.85,0,0,0,.849.849h1.641v1.641a.85.85,0,0,0,.849.849h5.928a.85.85,0,0,0,.849-.849V79.715h1.641a.85.85,0,0,0,.849-.849V70.447A.85.85,0,0,0,81.356,69.6Zm-.165,9.1H79.55a.85.85,0,0,0-.849.849v1.641H73.1V79.55a.85.85,0,0,0-.849-.849H70.612V70.612h.931v2.074a.507.507,0,1,0,1.015,0V70.612h.911v2.074a.507.507,0,0,0,1.015,0V70.612h.911v2.074a.507.507,0,1,0,1.015,0V70.612h.877v2.074a.507.507,0,0,0,1.015,0V70.612h.877v2.074a.507.507,0,0,0,1.015,0V70.612h1Zm0,0" transform="translate(-67.244 -67.244)" fill="#8c8a8a"/>
  </g>
</svg>
