<svg xmlns="http://www.w3.org/2000/svg" width="469.334" height="469.334" viewBox="0 0 469.334 469.334">
  <g id="Group_1" data-name="Group 1" transform="translate(203 -161)">
    <path id="gps-icon" d="M234.667,149.333A85.334,85.334,0,1,0,320,234.667,85.309,85.309,0,0,0,234.667,149.333Zm190.72,64A191.878,191.878,0,0,0,256,43.947V0H213.333V43.947A191.876,191.876,0,0,0,43.947,213.333H0V256H43.947A191.879,191.879,0,0,0,213.334,425.387v43.947H256V425.387A191.88,191.88,0,0,0,425.387,256h43.947V213.333H425.387ZM234.667,384A149.333,149.333,0,1,1,384,234.667,149.36,149.36,0,0,1,234.667,384Z" transform="translate(-203 161)"/>
    <circle id="Ellipse_1" data-name="Ellipse 1" cx="86.5" cy="86.5" r="86.5" transform="translate(-55 309)" fill="#2196f3"/>
  </g>
</svg>
