<svg xmlns="http://www.w3.org/2000/svg" width="85" height="22" viewBox="0 0 85 22">
  <g id="Group_1347" data-name="Group 1347" transform="translate(-965 -484)">
    <g id="Rectangle_3" data-name="Rectangle 3" transform="translate(965 484)" fill="#ebffeb" stroke="#00b700" stroke-width="0.7">
      <rect width="85" height="22" rx="3" stroke="none"/>
      <rect x="0.35" y="0.35" width="84.3" height="21.3" rx="2.65" fill="none"/>
    </g>
    <path id="Union_3" data-name="Union 3" d="M3,22a3,3,0,0,1-3-3V3A3,3,0,0,1,3,0H20a3,3,0,0,1,3,3V7.556l2.9,2.9a1,1,0,0,1,0,1.414l-2.9,2.9V19a3,3,0,0,1-3,3Z" transform="translate(965 484)" fill="#00b700"/>
    <g id="quality" transform="translate(892.426 458.582)">
      <path id="Path_342" data-name="Path 342" d="M303.372,354.074a1.569,1.569,0,0,0-.337.453,1.223,1.223,0,0,1-1.535.755,2.4,2.4,0,0,0-.467-.029l1.778,3.119.489-1.448a.249.249,0,0,1,.288-.165l1.5.316Z" transform="translate(-215.459 -314.391)" fill="#fff" fill-rule="evenodd"/>
      <path id="Path_343" data-name="Path 343" d="M93.367,355.253a2.4,2.4,0,0,0-.467.029,1.222,1.222,0,0,1-1.535-.755,1.569,1.569,0,0,0-.337-.453l-1.711,3,1.5-.316a.249.249,0,0,1,.288.165l.489,1.448Z" transform="translate(-10.792 -314.391)" fill="#fff" fill-rule="evenodd"/>
      <path id="Path_344" data-name="Path 344" d="M84.71,29.136a.858.858,0,0,0-1.27,0,2.139,2.139,0,0,1-.653.324,2.087,2.087,0,0,1-.739,0,1.273,1.273,0,0,0-.643.016,1.244,1.244,0,0,0-.4.5,1.494,1.494,0,0,1-1.1.881,1.226,1.226,0,0,0-.564.281,1.234,1.234,0,0,0-.152.613,1.526,1.526,0,0,1-.618,1.272,1.275,1.275,0,0,0-.4.52,1.324,1.324,0,0,0,.126.654,1.683,1.683,0,0,1,0,1.477,1.325,1.325,0,0,0-.126.654,1.276,1.276,0,0,0,.4.52,1.526,1.526,0,0,1,.618,1.272A.752.752,0,0,0,79.9,39a1.495,1.495,0,0,1,1.1.881,1.244,1.244,0,0,0,.4.5,1.273,1.273,0,0,0,.643.016,2.087,2.087,0,0,1,.739,0,2.14,2.14,0,0,1,.653.324.858.858,0,0,0,1.27,0,2.14,2.14,0,0,1,.653-.324,2.087,2.087,0,0,1,.739,0,1.273,1.273,0,0,0,.643-.016,1.244,1.244,0,0,0,.4-.5,1.495,1.495,0,0,1,1.1-.881.752.752,0,0,0,.716-.893,1.527,1.527,0,0,1,.618-1.272,1.274,1.274,0,0,0,.4-.52,1.324,1.324,0,0,0-.126-.654,1.684,1.684,0,0,1,0-1.477,1.324,1.324,0,0,0,.126-.654,1.276,1.276,0,0,0-.4-.52,1.527,1.527,0,0,1-.618-1.272,1.235,1.235,0,0,0-.152-.613,1.229,1.229,0,0,0-.564-.281,1.495,1.495,0,0,1-1.1-.881,1.244,1.244,0,0,0-.4-.5,1.272,1.272,0,0,0-.643-.016,2.087,2.087,0,0,1-.739,0,2.14,2.14,0,0,1-.653-.324Zm-.635,1.73A4.06,4.06,0,1,1,81.2,32.055,4.06,4.06,0,0,1,84.074,30.866Z" fill="#fff" fill-rule="evenodd"/>
      <path id="Path_345" data-name="Path 345" d="M155.144,105.295a3.56,3.56,0,1,0,1.043,2.517,3.56,3.56,0,0,0-1.043-2.517Zm-3.737,1.712a1.859,1.859,0,0,1,.23-.186.8.8,0,0,0,.351-.97.774.774,0,0,1,.235-.787.615.615,0,0,1,.384-.124.825.825,0,0,1,.383.1,1.126,1.126,0,0,1,.562,1.016v.8a8.184,8.184,0,0,1,1.086.012.739.739,0,0,1,.457.292.771.771,0,0,1,.16.435,15.366,15.366,0,0,1-.287,1.626.864.864,0,0,1-.26.485.732.732,0,0,1-.5.193h-2.177a.847.847,0,0,1-.464-.139.409.409,0,0,1-.235.074h-.921a.413.413,0,0,1-.411-.411v-2.012a.412.412,0,0,1,.411-.411h.921A.41.41,0,0,1,151.407,107.007Z" transform="translate(-68.552 -72.886)" fill="#fff" fill-rule="evenodd"/>
      <path id="Path_346" data-name="Path 346" d="M229.384,143.625c0,.138.171.211.288.211h2.177a.288.288,0,0,0,.273-.267c.059-.327.277-1.277.277-1.538a.294.294,0,0,0-.205-.238c-.221-.04-.972,0-1.248,0a.25.25,0,0,1-.25-.25V140.5a.633.633,0,0,0-.3-.577.327.327,0,0,0-.149-.044.128.128,0,0,0-.08.022c-.079.06-.058.228-.046.312a1.211,1.211,0,0,1-.55,1.452c-.1.074-.189.138-.189.188Z" transform="translate(-146.196 -107.323)" fill="#fff" fill-rule="evenodd"/>
      <path id="Path_347" data-name="Path 347" d="M192.786,201.786h-.744v1.835h.744v-1.835Z" transform="translate(-110.097 -167.173)" fill="#fff" fill-rule="evenodd"/>
    </g>
    <path id="Path_350" data-name="Path 350" d="M2.392-3.032a1.665,1.665,0,0,0,.53-.076,1.025,1.025,0,0,0,.372-.21.843.843,0,0,0,.218-.318,1.1,1.1,0,0,0,.072-.4.821.821,0,0,0-.29-.676,1.387,1.387,0,0,0-.886-.236H1.72v1.92ZM5.16,0H4.188a.426.426,0,0,1-.4-.216L2.572-2.068a.427.427,0,0,0-.15-.148A.526.526,0,0,0,2.18-2.26H1.72V0H.644V-5.784H2.408a3.667,3.667,0,0,1,1.01.122,1.932,1.932,0,0,1,.692.342,1.338,1.338,0,0,1,.4.526,1.73,1.73,0,0,1,.128.674,1.747,1.747,0,0,1-.086.552A1.6,1.6,0,0,1,4.3-3.1a1.671,1.671,0,0,1-.4.372,2.006,2.006,0,0,1-.542.252,1.052,1.052,0,0,1,.192.142,1.009,1.009,0,0,1,.16.194ZM7.776-2.524a1.189,1.189,0,0,0-.054-.362.86.86,0,0,0-.162-.3.753.753,0,0,0-.274-.2A.94.94,0,0,0,6.9-3.46a.915.915,0,0,0-.674.244,1.2,1.2,0,0,0-.314.692Zm-1.884.6A1.944,1.944,0,0,0,6-1.382,1.117,1.117,0,0,0,6.236-1a.909.909,0,0,0,.342.224A1.243,1.243,0,0,0,7.016-.7,1.358,1.358,0,0,0,7.43-.76a1.941,1.941,0,0,0,.3-.124q.13-.068.228-.124a.383.383,0,0,1,.19-.056.2.2,0,0,1,.184.092l.284.36a1.647,1.647,0,0,1-.368.322,2.064,2.064,0,0,1-.426.208,2.328,2.328,0,0,1-.452.11A3.236,3.236,0,0,1,6.928.06a2.192,2.192,0,0,1-.8-.142,1.782,1.782,0,0,1-.64-.42,1.971,1.971,0,0,1-.428-.688,2.662,2.662,0,0,1-.156-.95,2.272,2.272,0,0,1,.136-.79,1.9,1.9,0,0,1,.39-.644,1.836,1.836,0,0,1,.62-.434,2.042,2.042,0,0,1,.826-.16,2.009,2.009,0,0,1,.716.124,1.56,1.56,0,0,1,.564.362,1.677,1.677,0,0,1,.37.584,2.176,2.176,0,0,1,.134.79.641.641,0,0,1-.048.3.2.2,0,0,1-.184.078Zm6.22-1.308a.492.492,0,0,1-.086.088.2.2,0,0,1-.122.032.272.272,0,0,1-.148-.046q-.072-.046-.172-.1a1.286,1.286,0,0,0-.238-.1A1.094,1.094,0,0,0,11-3.416a1.043,1.043,0,0,0-.456.094.864.864,0,0,0-.326.27,1.217,1.217,0,0,0-.194.426,2.287,2.287,0,0,0-.064.566,2.219,2.219,0,0,0,.07.584,1.249,1.249,0,0,0,.2.43.869.869,0,0,0,.32.264.97.97,0,0,0,.424.09,1.051,1.051,0,0,0,.382-.058,1.205,1.205,0,0,0,.246-.128q.1-.07.174-.128a.262.262,0,0,1,.166-.058.2.2,0,0,1,.18.092l.284.36a1.786,1.786,0,0,1-.356.322,1.924,1.924,0,0,1-.4.208,2.024,2.024,0,0,1-.424.11A2.985,2.985,0,0,1,10.8.06a1.82,1.82,0,0,1-.716-.142A1.691,1.691,0,0,1,9.5-.5a1.977,1.977,0,0,1-.4-.666,2.573,2.573,0,0,1-.146-.9,2.61,2.61,0,0,1,.13-.838,1.9,1.9,0,0,1,.382-.668,1.751,1.751,0,0,1,.624-.442,2.15,2.15,0,0,1,.856-.16,2.036,2.036,0,0,1,.806.148,1.969,1.969,0,0,1,.622.424Zm2.428-.932a2.238,2.238,0,0,1,.83.148,1.818,1.818,0,0,1,.64.42,1.845,1.845,0,0,1,.41.664,2.526,2.526,0,0,1,.144.876,2.538,2.538,0,0,1-.144.88,1.885,1.885,0,0,1-.41.668,1.792,1.792,0,0,1-.64.424,2.238,2.238,0,0,1-.83.148A2.265,2.265,0,0,1,13.7-.088a1.788,1.788,0,0,1-.642-.424,1.909,1.909,0,0,1-.412-.668,2.507,2.507,0,0,1-.146-.88,2.494,2.494,0,0,1,.146-.876,1.867,1.867,0,0,1,.412-.664,1.815,1.815,0,0,1,.642-.42A2.265,2.265,0,0,1,14.54-4.168Zm0,3.468a.869.869,0,0,0,.758-.344,1.725,1.725,0,0,0,.246-1.008A1.745,1.745,0,0,0,15.3-3.064a.865.865,0,0,0-.758-.348.882.882,0,0,0-.77.35,1.725,1.725,0,0,0-.25,1.01,1.705,1.705,0,0,0,.25,1.006A.886.886,0,0,0,14.54-.7Zm2.548.7V-4.1h.6a.243.243,0,0,1,.252.18l.064.3a2.337,2.337,0,0,1,.226-.22,1.452,1.452,0,0,1,.252-.172,1.365,1.365,0,0,1,.288-.114,1.282,1.282,0,0,1,.338-.042.958.958,0,0,1,.638.21,1.264,1.264,0,0,1,.374.558,1.252,1.252,0,0,1,.24-.35,1.312,1.312,0,0,1,.316-.238,1.454,1.454,0,0,1,.366-.136,1.758,1.758,0,0,1,.39-.044,1.639,1.639,0,0,1,.6.1,1.159,1.159,0,0,1,.444.3,1.34,1.34,0,0,1,.274.488,2.126,2.126,0,0,1,.094.66V0h-.988V-2.612a.878.878,0,0,0-.172-.59.631.631,0,0,0-.5-.2.752.752,0,0,0-.282.052.672.672,0,0,0-.228.15.685.685,0,0,0-.154.246.957.957,0,0,0-.056.34V0h-.992V-2.612a.894.894,0,0,0-.166-.6.614.614,0,0,0-.486-.188.8.8,0,0,0-.4.106,1.341,1.341,0,0,0-.346.29V0Zm6.468,0V-4.1h.6a.243.243,0,0,1,.252.18l.064.3a2.337,2.337,0,0,1,.226-.22,1.452,1.452,0,0,1,.252-.172,1.365,1.365,0,0,1,.288-.114,1.282,1.282,0,0,1,.338-.042.958.958,0,0,1,.638.21,1.264,1.264,0,0,1,.374.558,1.252,1.252,0,0,1,.24-.35,1.312,1.312,0,0,1,.316-.238,1.454,1.454,0,0,1,.366-.136,1.758,1.758,0,0,1,.39-.044,1.639,1.639,0,0,1,.6.1,1.159,1.159,0,0,1,.444.3,1.34,1.34,0,0,1,.274.488,2.126,2.126,0,0,1,.094.66V0h-.988V-2.612a.878.878,0,0,0-.172-.59.631.631,0,0,0-.5-.2.752.752,0,0,0-.282.052.672.672,0,0,0-.228.15.685.685,0,0,0-.154.246.957.957,0,0,0-.056.34V0h-.992V-2.612a.894.894,0,0,0-.166-.6.614.614,0,0,0-.486-.188.8.8,0,0,0-.4.106,1.341,1.341,0,0,0-.346.29V0Zm9.112-2.524a1.189,1.189,0,0,0-.054-.362.86.86,0,0,0-.162-.3.753.753,0,0,0-.274-.2.94.94,0,0,0-.386-.074.915.915,0,0,0-.674.244,1.2,1.2,0,0,0-.314.692Zm-1.884.6a1.944,1.944,0,0,0,.112.546,1.117,1.117,0,0,0,.232.38.909.909,0,0,0,.342.224,1.243,1.243,0,0,0,.438.074,1.358,1.358,0,0,0,.414-.056,1.941,1.941,0,0,0,.3-.124q.13-.068.228-.124a.383.383,0,0,1,.19-.056.2.2,0,0,1,.184.092l.284.36a1.647,1.647,0,0,1-.368.322,2.064,2.064,0,0,1-.426.208,2.328,2.328,0,0,1-.452.11A3.236,3.236,0,0,1,31.82.06a2.192,2.192,0,0,1-.8-.142,1.782,1.782,0,0,1-.64-.42,1.971,1.971,0,0,1-.428-.688,2.662,2.662,0,0,1-.156-.95,2.272,2.272,0,0,1,.136-.79,1.9,1.9,0,0,1,.39-.644,1.836,1.836,0,0,1,.62-.434,2.042,2.042,0,0,1,.826-.16,2.009,2.009,0,0,1,.716.124,1.56,1.56,0,0,1,.564.362,1.677,1.677,0,0,1,.37.584,2.176,2.176,0,0,1,.134.79.641.641,0,0,1-.048.3.2.2,0,0,1-.184.078Zm4.2-1.672a2.673,2.673,0,0,1,.262-.23,1.655,1.655,0,0,1,.292-.18,1.636,1.636,0,0,1,.33-.116,1.653,1.653,0,0,1,.384-.042,1.471,1.471,0,0,1,.6.114,1.178,1.178,0,0,1,.434.32,1.407,1.407,0,0,1,.264.492,2.091,2.091,0,0,1,.09.63V0h-.988V-2.612a.884.884,0,0,0-.172-.582.644.644,0,0,0-.524-.206,1.029,1.029,0,0,0-.48.116,1.72,1.72,0,0,0-.424.316V0h-.988V-4.1h.6a.243.243,0,0,1,.252.18Zm5.932.544a.972.972,0,0,0-.366-.288,1.079,1.079,0,0,0-.426-.084.944.944,0,0,0-.4.084.814.814,0,0,0-.308.254,1.221,1.221,0,0,0-.2.432,2.48,2.48,0,0,0-.068.618,2.743,2.743,0,0,0,.058.61,1.2,1.2,0,0,0,.166.408.633.633,0,0,0,.264.228.841.841,0,0,0,.348.07,1.011,1.011,0,0,0,.524-.128,1.556,1.556,0,0,0,.408-.364Zm.988-2.888V0h-.6a.233.233,0,0,1-.248-.18l-.084-.4a2.071,2.071,0,0,1-.57.46,1.539,1.539,0,0,1-.75.176,1.358,1.358,0,0,1-.616-.14,1.372,1.372,0,0,1-.482-.406,1.946,1.946,0,0,1-.312-.658,3.323,3.323,0,0,1-.11-.9,2.8,2.8,0,0,1,.124-.848,2.063,2.063,0,0,1,.356-.68,1.661,1.661,0,0,1,.556-.45A1.605,1.605,0,0,1,39.9-4.18a1.447,1.447,0,0,1,.588.108,1.507,1.507,0,0,1,.436.292V-5.944ZM45.3-2.524a1.189,1.189,0,0,0-.054-.362.86.86,0,0,0-.162-.3.753.753,0,0,0-.274-.2.94.94,0,0,0-.386-.074.915.915,0,0,0-.674.244,1.2,1.2,0,0,0-.314.692Zm-1.884.6a1.944,1.944,0,0,0,.112.546,1.117,1.117,0,0,0,.232.38.909.909,0,0,0,.342.224,1.243,1.243,0,0,0,.438.074A1.358,1.358,0,0,0,44.95-.76a1.941,1.941,0,0,0,.3-.124q.13-.068.228-.124a.383.383,0,0,1,.19-.056.2.2,0,0,1,.184.092l.284.36a1.647,1.647,0,0,1-.368.322,2.064,2.064,0,0,1-.426.208,2.328,2.328,0,0,1-.452.11,3.236,3.236,0,0,1-.446.032,2.192,2.192,0,0,1-.8-.142,1.782,1.782,0,0,1-.64-.42,1.971,1.971,0,0,1-.428-.688,2.662,2.662,0,0,1-.156-.95,2.272,2.272,0,0,1,.136-.79,1.9,1.9,0,0,1,.39-.644,1.836,1.836,0,0,1,.62-.434,2.042,2.042,0,0,1,.826-.16,2.009,2.009,0,0,1,.716.124,1.56,1.56,0,0,1,.564.362,1.677,1.677,0,0,1,.37.584,2.176,2.176,0,0,1,.134.79.641.641,0,0,1-.048.3.2.2,0,0,1-.184.078Zm5.856-1.128a.972.972,0,0,0-.366-.288,1.079,1.079,0,0,0-.426-.084.944.944,0,0,0-.4.084.814.814,0,0,0-.308.254,1.221,1.221,0,0,0-.2.432,2.48,2.48,0,0,0-.068.618,2.743,2.743,0,0,0,.058.61,1.2,1.2,0,0,0,.166.408.633.633,0,0,0,.264.228.841.841,0,0,0,.348.07,1.011,1.011,0,0,0,.524-.128,1.556,1.556,0,0,0,.408-.364Zm.988-2.888V0h-.6A.233.233,0,0,1,49.4-.18l-.084-.4a2.071,2.071,0,0,1-.57.46A1.539,1.539,0,0,1,48,.06a1.358,1.358,0,0,1-.616-.14A1.372,1.372,0,0,1,46.9-.486a1.946,1.946,0,0,1-.312-.658,3.323,3.323,0,0,1-.11-.9,2.8,2.8,0,0,1,.124-.848,2.063,2.063,0,0,1,.356-.68,1.661,1.661,0,0,1,.556-.45,1.605,1.605,0,0,1,.728-.162,1.447,1.447,0,0,1,.588.108,1.507,1.507,0,0,1,.436.292V-5.944Z" transform="translate(994.479 498)" fill="#00b700"/>
  </g>
</svg>
