<?xml version="1.0" encoding="UTF-8" standalone="no"?>
<!-- Created with Inkscape (http://www.inkscape.org/) -->

<svg
   version="1.1"
   id="svg666"
   xml:space="preserve"
   width="35"
   height="35"
   viewBox="0 0 682.66669 682.66669"
   xmlns="http://www.w3.org/2000/svg"
   ><defs
     id="defs670"><clipPath
       clipPathUnits="userSpaceOnUse"
       id="clipPath680"><path
         d="M 0,512 H 512 V 0 H 0 Z"
         id="path678" /></clipPath></defs><g
     id="g672"
     transform="matrix(1.3333333,0,0,-1.3333333,0,682.66667)"><g
       id="g674"><g
         id="g676"
         clip-path="url(#clipPath680)"><path
           d="m 15,319 h 482 v 80.013 H 15 Z"
           style="fill:none;stroke:#00a680;stroke-width:30;stroke-linecap:round;stroke-linejoin:round;stroke-miterlimit:22.926;stroke-dasharray:none;stroke-opacity:1"
           id="path682" /><g
           id="g684"
           transform="translate(40,319)"><path
             d="m 0,0 h 432 v -274 c 0,-16.523 -13.477,-30 -30,-30 H 30 c -16.523,0 -30,13.477 -30,30 z"
             style="fill:none;stroke:#00a680;stroke-width:30;stroke-linecap:round;stroke-linejoin:round;stroke-miterlimit:22.926;stroke-dasharray:none;stroke-opacity:1"
             id="path686" /></g><g
           id="g688"
           transform="translate(149.3105,480.7187)"><path
             d="M 0,0 C 17.421,19.853 47.638,21.824 67.491,4.403 87.343,-13.019 94.133,-75.906 90.812,-79.689 87.492,-83.474 24.256,-84.912 4.403,-67.49 -15.45,-50.069 -17.421,-19.853 0,0 Z"
             style="fill:none;stroke:#00a680;stroke-width:30;stroke-linecap:round;stroke-linejoin:round;stroke-miterlimit:22.926;stroke-dasharray:none;stroke-opacity:1"
             id="path690" /></g><g
           id="g692"
           transform="translate(362.4546,480.7187)"><path
             d="m 0,0 c -17.421,19.853 -47.638,21.824 -67.491,4.403 -19.852,-17.422 -26.642,-80.309 -23.321,-84.092 3.32,-3.785 66.556,-5.223 86.409,12.199 C 15.45,-50.069 17.421,-19.853 0,0 Z"
             style="fill:none;stroke:#00a680;stroke-width:30;stroke-linecap:round;stroke-linejoin:round;stroke-miterlimit:22.926;stroke-dasharray:none;stroke-opacity:1"
             id="path694" /></g><g
           id="g696"
           transform="translate(193.0576,237.981)"><path
             d="M 0,0 C 14.349,-8.284 19.265,-26.632 10.981,-40.981 2.696,-55.33 -15.651,-60.246 -30,-51.962 -44.349,-43.678 -49.265,-25.33 -40.98,-10.981 -32.696,3.368 -14.349,8.284 0,0 Z"
             style="fill:none;stroke:#00a680;stroke-width:30;stroke-linecap:round;stroke-linejoin:round;stroke-miterlimit:22.926;stroke-dasharray:none;stroke-opacity:1"
             id="path698" /></g><g
           id="g700"
           transform="translate(348.9419,147.981)"><path
             d="M 0,0 C 14.349,-8.284 19.265,-26.632 10.981,-40.98 2.696,-55.33 -15.651,-60.246 -30,-51.961 -44.349,-43.677 -49.265,-25.33 -40.981,-10.98 -32.696,3.368 -14.349,8.284 0,0 Z"
             style="fill:none;stroke:#00a680;stroke-width:30;stroke-linecap:round;stroke-linejoin:round;stroke-miterlimit:22.926;stroke-dasharray:none;stroke-opacity:1"
             id="path702" /></g><g
           id="g704"
           transform="translate(296.2495,236.7148)"><path
             d="M 0,0 -80.5,-139.43"
             style="fill:none;stroke:#00a680;stroke-width:30;stroke-linecap:round;stroke-linejoin:round;stroke-miterlimit:22.926;stroke-dasharray:none;stroke-opacity:1"
             id="path706" /></g></g></g></g></svg>
