<svg id="Icon_ionic-ios-checkmark-circle-outline" data-name="Icon ionic-ios-checkmark-circle-outline" xmlns="http://www.w3.org/2000/svg" width="21" height="21" viewBox="0 0 20.497 20.497">
  <path id="Path_920" data-name="Path 920" d="M20.988,13.157l-.867-.892a.186.186,0,0,0-.138-.059h0a.179.179,0,0,0-.138.059l-6.011,6.055-2.188-2.188a.191.191,0,0,0-.276,0l-.877.877a.2.2,0,0,0,0,.281l2.759,2.759a.873.873,0,0,0,.576.281.914.914,0,0,0,.572-.271h0l6.588-6.622A.211.211,0,0,0,20.988,13.157Z" transform="translate(-5.488 -6.018)" fill="#2196f3"/>
  <path id="Path_921" data-name="Path 921" d="M13.623,4.755a8.865,8.865,0,1,1-6.272,2.6,8.81,8.81,0,0,1,6.272-2.6m0-1.38A10.248,10.248,0,1,0,23.872,13.623,10.247,10.247,0,0,0,13.623,3.375Z" transform="translate(-3.375 -3.375)" fill="#2196f3"/>
</svg>
