<svg xmlns="http://www.w3.org/2000/svg" width="38" height="45" viewBox="0 0 37.731 45.428">
  <g id="Group_22" data-name="Group 22" transform="translate(-4573 -4008.275)">
    <g id="Group_21" data-name="Group 21" transform="translate(4575 4011)">
      <g id="Group_19" data-name="Group 19" transform="translate(0)">
        <path id="Path_931" data-name="Path 931" d="M-1203.377,966.324c-3.927,3.6-10.193,6.554-16.9,7.812,0,.383-.013,2.508-.064,12.3-.068,13.063,14.45,19.447,16.7,20.427,2.184-.861,16.886-7.235,16.954-20.3.051-9.793.062-11.917.064-12.3C-1193.309,972.955-1199.488,969.956-1203.377,966.324Z" transform="translate(1220.34 -966.324)" fill="#fff" stroke="#fff" stroke-width="4"/>
      </g>
      <g id="Group_20" data-name="Group 20" transform="translate(1.043 1.655)">
        <path id="Path_932" data-name="Path 932" d="M-1186.993,994.035a40.214,40.214,0,0,1-15.824,6.971l-.061,11.534c-.028,5.278,2.446,10.053,7.352,14.192a35.659,35.659,0,0,0,8.333,5.165l.235-.1V994.062Z" transform="translate(1202.878 -994.035)" fill="#34ce34"/>
        <path id="Path_933" data-name="Path 933" d="M-936.238,994.566v37.709a35.74,35.74,0,0,0,8.152-5c4.95-4.1,7.473-8.852,7.5-14.126l.061-11.528A40.121,40.121,0,0,1-936.238,994.566Z" transform="translate(952.158 -994.534)" fill="#12b504"/>
      </g>
    </g>
    <path id="Path_930" data-name="Path 930" d="M29.376,13.913l-1.556-1.6a.335.335,0,0,0-.248-.106h0a.321.321,0,0,0-.248.106L16.536,23.181,12.61,19.254a.342.342,0,0,0-.5,0L10.54,20.828a.352.352,0,0,0,0,.5l4.952,4.952a1.566,1.566,0,0,0,1.035.5,1.641,1.641,0,0,0,1.026-.486h.009L29.385,14.417A.378.378,0,0,0,29.376,13.913Z" transform="translate(4572.138 4011.442)" fill="#fff"/>
  </g>
</svg>
