<svg xmlns="http://www.w3.org/2000/svg" xmlns:xlink="http://www.w3.org/1999/xlink" width="59.769" height="47.025" viewBox="0 0 59.769 47.025">
  <defs>
    <linearGradient id="linear-gradient" x1="0.5" x2="0.5" y2="1" gradientUnits="objectBoundingBox">
      <stop offset="0" stop-color="#f7d136"/>
      <stop offset="1" stop-color="#f6e291"/>
    </linearGradient>
    <linearGradient id="linear-gradient-2" y1="0.432" x2="1" y2="0.432" gradientUnits="objectBoundingBox">
      <stop offset="0" stop-color="#54a5ff"/>
      <stop offset="1" stop-color="#8ad3fe"/>
    </linearGradient>
    <linearGradient id="linear-gradient-3" y1="0.5" y2="0.5" xlink:href="#linear-gradient-2"/>
    <linearGradient id="linear-gradient-4" y1="0.5" x2="0.999" y2="0.5" gradientUnits="objectBoundingBox">
      <stop offset="0" stop-color="#d3e6f5"/>
      <stop offset="1" stop-color="#f0f7fc"/>
    </linearGradient>
    <linearGradient id="linear-gradient-5" y1="0.5" y2="0.5" xlink:href="#linear-gradient-2"/>
    <linearGradient id="linear-gradient-6" y1="0.471" y2="0.471" xlink:href="#linear-gradient-2"/>
    <linearGradient id="linear-gradient-7" y1="0.5" y2="0.5" xlink:href="#linear-gradient-2"/>
  </defs>
  <g id="beach" transform="translate(-3.81 -15.851)">
    <path id="Path_23990" data-name="Path 23990" d="M31.213,52.338a1.17,1.17,0,0,1-.659-.2,1.255,1.255,0,0,1-.362-1.713L42.658,30.574a1.191,1.191,0,0,1,1.681-.372,1.255,1.255,0,0,1,.362,1.713L32.234,51.763A1.213,1.213,0,0,1,31.213,52.338Z" transform="translate(1.668 0.901)" fill="#b4cde1"/>
    <path id="Path_23991" data-name="Path 23991" d="M17.889,47.7a36.889,36.889,0,0,1-.34,5.021l-7.084,3.489A30.847,30.847,0,0,1,9.4,47.7c0-7.052,1.9-12.764,4.255-12.764S17.889,40.652,17.889,47.7Z" transform="translate(0.356 1.216)" fill="url(#linear-gradient)"/>
    <path id="Path_23992" data-name="Path 23992" d="M60.08,57.82a10.2,10.2,0,0,0-1.33.074" transform="translate(3.499 2.673)" fill="url(#linear-gradient-2)"/>
    <path id="Path_24001" data-name="Path 24001" d="M60.561,33.465a17.019,17.019,0,0,1-2.712,9.19l-10.126-6.51c5.074-7.893,7.116-15.6,4.553-17.253s-8.744,3.4-13.828,11.3L28.32,23.668a17.019,17.019,0,0,1,23.529-5.106l.894.574a17.019,17.019,0,0,1,7.818,14.328Z" transform="translate(1.561 0)" fill="url(#linear-gradient-3)"/>
    <path id="Path_24002" data-name="Path 24002" d="M47.115,35.972,37.85,30.015c5.074-7.893,11.254-12.945,13.828-11.3S52.189,28.079,47.115,35.972Z" transform="translate(2.168 0.163)" fill="url(#linear-gradient-4)"/>
    <path id="Path_24003" data-name="Path 24003" d="M62.23,58.457c-3.691.372-4.127,2.308-8.605,2.308-4.967,0-4.967-2.383-9.935-2.383s-4.957,2.383-9.914,2.383-4.957-2.383-9.924-2.383-4.967,2.383-9.935,2.383S8.95,58.425,4.11,58.382l6.861-3.84c.808-.457,1.627-.9,2.478-1.287a47.462,47.462,0,0,1,40.591.6Z" transform="translate(0.019 2.111)" fill="url(#linear-gradient-5)"/>
    <path id="Path_24004" data-name="Path 24004" d="M4.129,57.82,3.81,58" transform="translate(0 2.673)" fill="url(#linear-gradient-6)"/>
    <path id="Path_24005" data-name="Path 24005" d="M58.952,58l-.2-.106" transform="translate(3.499 2.678)" fill="url(#linear-gradient-7)"/>
  </g>
</svg>
